<svg width="33" height="32" viewBox="0 0 33 32" fill="none" xmlns="http://www.w3.org/2000/svg">
<path d="M21.4935 5.23758H19.2876L22.4227 2.1037C22.9046 1.62308 22.9046 0.842996 22.4227 0.361145C21.9421 -0.120707 21.162 -0.120707 20.6802 0.361145L15.4402 5.59866C15.2085 5.82911 15.0791 6.14213 15.0791 6.46994C15.0791 6.79651 15.2085 7.11076 15.4402 7.34122L20.6802 12.5837C20.9205 12.824 21.236 12.9447 21.5515 12.9447C21.8669 12.9447 22.1824 12.824 22.4227 12.5837C22.9046 12.103 22.9046 11.323 22.4227 10.8411L19.2852 7.7023H21.4935C25.951 7.7023 29.5766 11.3279 29.5766 15.7853C29.5766 20.244 25.951 23.8708 21.4935 23.8708C20.8133 23.8708 20.2612 24.4229 20.2612 25.1032C20.2612 25.7834 20.8133 26.3355 21.4935 26.3355C27.309 26.3355 32.0413 21.6033 32.0413 15.7853C32.0413 9.9686 27.3103 5.23758 21.4935 5.23758Z" fill="#CCCCCC"/>
<path d="M11.3623 18.9907C10.8805 18.5088 10.1016 18.5088 9.61978 18.9907C9.13793 19.4725 9.13793 20.2514 9.61978 20.7332L12.7561 23.8696H10.549C6.09154 23.8696 2.46471 20.2427 2.46471 15.7841C2.46471 11.3279 6.09031 7.70226 10.549 7.70226C11.2292 7.70226 11.7813 7.15017 11.7813 6.46991C11.7813 5.78964 11.2292 5.23755 10.549 5.23755C4.73225 5.23755 0 9.96857 0 15.7853C0 21.602 4.73225 26.3355 10.549 26.3355H12.7561L9.61978 29.4719C9.13793 29.9537 9.13793 30.7326 9.61978 31.2144C9.86009 31.4547 10.1756 31.5755 10.4911 31.5755C10.8065 31.5755 11.122 31.4547 11.3623 31.2144L16.6023 25.9744C17.0842 25.4926 17.0842 24.7137 16.6023 24.2319L11.3623 18.9907Z" fill="#CCCCCC"/>
</svg>
