<?xml version="1.0" encoding="UTF-8" standalone="no"?>
<svg
   xmlns:dc="http://purl.org/dc/elements/1.1/"
   xmlns:cc="http://creativecommons.org/ns#"
   xmlns:rdf="http://www.w3.org/1999/02/22-rdf-syntax-ns#"
   xmlns:svg="http://www.w3.org/2000/svg"
   xmlns="http://www.w3.org/2000/svg"
   xmlns:sodipodi="http://sodipodi.sourceforge.net/DTD/sodipodi-0.dtd"
   xmlns:inkscape="http://www.inkscape.org/namespaces/inkscape"
   width="33"
   height="32"
   viewBox="0 0 33 32"
   fill="none"
   version="1.1"
   id="svg6"
   sodipodi:docname="adv_04.svg"
   inkscape:version="0.92.1 r15371">
  <metadata
     id="metadata12">
    <rdf:RDF>
      <cc:Work
         rdf:about="">
        <dc:format>image/svg+xml</dc:format>
        <dc:type
           rdf:resource="http://purl.org/dc/dcmitype/StillImage" />
      </cc:Work>
    </rdf:RDF>
  </metadata>
  <defs
     id="defs10" />
  <sodipodi:namedview
     pagecolor="#ffffff"
     bordercolor="#666666"
     borderopacity="1"
     objecttolerance="10"
     gridtolerance="10"
     guidetolerance="10"
     inkscape:pageopacity="0"
     inkscape:pageshadow="2"
     inkscape:window-width="1366"
     inkscape:window-height="731"
     id="namedview8"
     showgrid="false"
     inkscape:zoom="7.375"
     inkscape:cx="16.5"
     inkscape:cy="16"
     inkscape:window-x="0"
     inkscape:window-y="0"
     inkscape:window-maximized="1"
     inkscape:current-layer="svg6" />
  <path
     d="M21.4935 5.23758H19.2876L22.4227 2.1037C22.9046 1.62308 22.9046 0.842996 22.4227 0.361145C21.9421 -0.120707 21.162 -0.120707 20.6802 0.361145L15.4402 5.59866C15.2085 5.82911 15.0791 6.14213 15.0791 6.46994C15.0791 6.79651 15.2085 7.11076 15.4402 7.34122L20.6802 12.5837C20.9205 12.824 21.236 12.9447 21.5515 12.9447C21.8669 12.9447 22.1824 12.824 22.4227 12.5837C22.9046 12.103 22.9046 11.323 22.4227 10.8411L19.2852 7.7023H21.4935C25.951 7.7023 29.5766 11.3279 29.5766 15.7853C29.5766 20.244 25.951 23.8708 21.4935 23.8708C20.8133 23.8708 20.2612 24.4229 20.2612 25.1032C20.2612 25.7834 20.8133 26.3355 21.4935 26.3355C27.309 26.3355 32.0413 21.6033 32.0413 15.7853C32.0413 9.9686 27.3103 5.23758 21.4935 5.23758Z"
     fill="#CCCCCC"
     id="path2" />
  <path
     d="M11.3623 18.9907C10.8805 18.5088 10.1016 18.5088 9.61978 18.9907C9.13793 19.4725 9.13793 20.2514 9.61978 20.7332L12.7561 23.8696H10.549C6.09154 23.8696 2.46471 20.2427 2.46471 15.7841C2.46471 11.3279 6.09031 7.70226 10.549 7.70226C11.2292 7.70226 11.7813 7.15017 11.7813 6.46991C11.7813 5.78964 11.2292 5.23755 10.549 5.23755C4.73225 5.23755 0 9.96857 0 15.7853C0 21.602 4.73225 26.3355 10.549 26.3355H12.7561L9.61978 29.4719C9.13793 29.9537 9.13793 30.7326 9.61978 31.2144C9.86009 31.4547 10.1756 31.5755 10.4911 31.5755C10.8065 31.5755 11.122 31.4547 11.3623 31.2144L16.6023 25.9744C17.0842 25.4926 17.0842 24.7137 16.6023 24.2319L11.3623 18.9907Z"
     fill="#CCCCCC"
     id="path4" />
  <path
     style="fill:#ff0000;stroke:none;stroke-width:0.13559322"
     d="m 20.656548,25.918027 c -0.404253,-0.404253 -0.444488,-1.12635 -0.08734,-1.567414 0.201584,-0.248947 0.4865,-0.334467 1.593221,-0.478222 1.569113,-0.203819 2.566685,-0.546944 3.672594,-1.263228 4.373499,-2.832664 5.045309,-8.816191 1.404105,-12.505768 -1.696443,-1.7189798 -3.57336,-2.4288187 -6.42215,-2.4288187 h -1.632859 l 1.790142,1.8078539 c 1.214391,1.2264058 1.790142,1.9045258 1.790142,2.1084288 0,0.907732 -0.874867,1.525134 -1.672594,1.180365 -0.236006,-0.101999 -1.664694,-1.431156 -3.174864,-2.9536815 -2.640666,-2.6622714 -2.745763,-2.7887434 -2.745763,-3.3042106 0,-0.5175 0.101736,-0.6376389 2.950283,-3.4839792 2.765916,-2.76377242 2.981235,-2.94799677 3.445574,-2.94799677 0.38661,0 0.572318,0.09154212 0.846327,0.41718309 0.665075,0.79039678 0.54135,1.04062508 -1.576626,3.18865338 l -1.483097,1.5041416 1.874871,0.086524 c 2.285004,0.1054517 3.271002,0.3293275 4.857923,1.1030152 2.74168,1.3366794 4.748237,3.7553788 5.579567,6.7255988 0.381907,1.364491 0.346723,4.215447 -0.06843,5.545315 -0.726974,2.328713 -1.995379,4.148751 -3.884017,5.573185 -1.591676,1.200463 -3.948839,2.023014 -5.802773,2.024925 -0.798206,8.14e-4 -0.965922,-0.04355 -1.254238,-0.33187 z"
     id="path4563"
     inkscape:connector-curvature="0" />
  <path
     style="fill:#a0a0a0;stroke:none;stroke-width:0.13559322"
     d="M 9.9508475,31.375211 C 9.5236123,31.130193 9.3496466,30.830156 9.3449902,30.330296 c -0.00385,-0.412941 0.1786887,-0.647874 1.6906028,-2.1759 0.932204,-0.942137 1.694915,-1.755856 1.694915,-1.808263 0,-0.05241 -0.777966,-0.09634 -1.728813,-0.09764 C 9.1193399,26.245931 7.9215995,26.048415 6.6336011,25.528169 0.70220028,23.13237 -1.7323044,15.974985 1.5063721,10.454237 2.222053,9.2342655 3.9851129,7.4712056 5.2050847,6.7555246 7.0320979,5.6837305 9.997112,4.9946444 10.992427,5.4105135 c 0.667271,0.2788039 0.91083,0.8934211 0.606741,1.5311028 -0.249222,0.5226237 -0.664489,0.73296 -1.447084,0.73296 -0.9059236,0 -1.9213601,0.2753177 -3.1164908,0.8449815 C 6.1220012,8.9550251 5.6712663,9.2828064 4.8615394,10.100563 3.6877002,11.286042 3.0828205,12.334 2.6932807,13.857086 c -1.1695408,4.572861 1.9082952,9.174751 6.6508771,9.944199 1.0169602,0.164994 3.3863502,0.193506 3.3863502,0.04075 0,-0.05705 -0.762711,-0.864611 -1.694915,-1.794575 -1.538369,-1.534676 -1.694915,-1.735637 -1.694915,-2.175787 0,-0.855914 0.822296,-1.411819 1.607355,-1.086636 0.489856,0.202904 5.788246,5.532962 5.914824,5.950174 0.19922,0.656651 -0.08485,1.041544 -2.752426,3.729377 -3.103462,3.127023 -3.409207,3.340965 -4.1595835,2.910625 z"
     id="path4565"
     inkscape:connector-curvature="0" />
  <path
     style="fill:#a0a0a0;stroke:none;stroke-width:0.13559322"
     d="M 9.9348866,31.280191 C 9.4639535,30.993026 9.2779334,30.498826 9.4616607,30.022969 c 0.066784,-0.172972 0.8295963,-1.05624 1.6951373,-1.962817 0.865541,-0.906579 1.57371,-1.675046 1.57371,-1.707706 0,-0.03266 -0.869491,-0.09744 -1.932203,-0.143965 C 7.2421695,26.052812 5.4001909,25.305203 3.2332922,23.138047 2.1374445,22.042071 1.8416249,21.64696 1.3000583,20.555932 0.39121218,18.724992 0.19290762,17.861005 0.19523753,15.742373 0.19750763,13.67812 0.39534746,12.794911 1.2431066,11.064407 1.7111689,10.108966 2.0402545,9.6783669 3.1674229,8.5464957 3.9152556,7.7955429 4.8639855,6.9905892 5.2757116,6.7577096 6.5008415,6.0647545 8.4369074,5.4789232 9.7474576,5.4046106 10.783835,5.3458446 10.937583,5.3691062 11.272881,5.6354024 11.74982,6.0141899 11.779278,6.6924782 11.340678,7.1964541 11.078319,7.4979197 10.866949,7.5659275 9.8313679,7.6820712 7.7371677,7.9169422 6.0252742,8.790379 4.590728,10.355933 1.6014534,13.6182 1.7142359,18.378806 4.8548782,21.505843 c 1.1808319,1.175716 2.5159263,1.917318 4.0287291,2.237828 0.9757832,0.206734 3.8469007,0.278741 3.8469007,0.09648 0,-0.05809 -0.402948,-0.50046 -0.895442,-0.983051 -0.492493,-0.482592 -1.261139,-1.297766 -1.708103,-1.811497 -0.7174945,-0.824677 -0.8031299,-0.983463 -0.7312682,-1.355932 0.1068846,-0.554 0.5388634,-0.896451 1.1308122,-0.896451 0.515102,0 1.060229,0.48264 4.484103,3.970098 1.663809,1.694706 1.906174,2.024407 1.819903,2.475702 -0.111735,0.584503 -4.556395,5.189331 -5.850937,6.061781 -0.441213,0.297354 -0.525991,0.295682 -1.0446894,-0.02061 z"
     id="path4567"
     inkscape:connector-curvature="0" />
  <path
     style="fill:#a0a0a0;stroke:none;stroke-width:0.13559322"
     d="m 20.587342,25.992949 c -0.387286,-0.387287 -0.425068,-0.49347 -0.35677,-1.002672 0.106149,-0.791397 0.578805,-1.180108 1.43496,-1.180108 0.920741,0 2.599691,-0.459477 3.579943,-0.97972 1.774916,-0.941992 3.313282,-2.816963 3.924324,-4.782991 0.379017,-1.219489 0.401031,-3.1555 0.04934,-4.338983 -0.57746,-1.943207 -1.793177,-3.582469 -3.451962,-4.6545928 -1.388321,-0.8973157 -2.250772,-1.134549 -4.397012,-1.2094823 l -1.868822,-0.065248 1.576982,1.6087289 c 0.86734,0.8848012 1.63387,1.7548062 1.703399,1.9333452 0.163994,0.421104 -0.07674,1.16598 -0.464641,1.437676 -0.160039,0.112095 -0.535183,0.20381 -0.833653,0.20381 -0.526159,0 -0.632524,-0.08985 -3.495253,-2.952581 C 14.097823,6.1197803 14.118101,6.7972774 17.781356,3.100534 19.291525,1.5765586 20.691885,0.24329075 20.893266,0.13771628 21.695041,-0.2826154 22.492795,0.00412763 22.7581,0.80800801 22.993221,1.5204334 22.761681,1.9001708 21.030915,3.640678 l -1.584303,1.5932203 h 1.772801 c 1.335625,0 2.03729,0.06764 2.845338,0.2742902 7.451656,1.905683 10.461084,10.6054645 5.809284,16.7937245 -1.705871,2.269309 -4.680992,3.85011 -7.607881,4.042369 l -1.245654,0.08182 z"
     id="path4569"
     inkscape:connector-curvature="0" />
  <path
     style="fill:#a0a0a0;stroke:none;stroke-width:0.13559322"
     d="M 10.022743,31.365532 C 9.5679669,31.135412 9.2784007,30.585235 9.3861369,30.15598 c 0.047937,-0.190994 0.7895221,-1.080377 1.6479681,-1.976407 0.858446,-0.89603 1.56081,-1.687174 1.56081,-1.7581 0,-0.07129 -0.833693,-0.165862 -1.864407,-0.211491 C 7.2542907,26.056095 5.3854618,25.29037 3.2331387,23.138047 1.8071407,21.71205 1.0941094,20.540681 0.50583511,18.657627 0.23574428,17.793072 0.18835154,17.356208 0.18957668,15.742373 0.19121049,13.590184 0.42269802,12.58507 1.3138008,10.861017 1.956525,9.617512 4.2845741,7.2529791 5.4762712,6.633315 6.7412,5.9755713 8.4482986,5.4859218 9.7474576,5.4082043 c 1.0392244,-0.062168 1.1892044,-0.03983 1.5254234,0.2271981 0.477053,0.3788781 0.506569,1.0576978 0.0678,1.5591797 -0.255813,0.2923736 -0.4871,0.3710921 -1.4320962,0.4874134 -2.6652405,0.3280697 -4.6521734,1.5420326 -6.1228739,3.7409125 -0.9509365,1.421768 -1.2924876,2.58114 -1.2924876,4.387261 0,1.136535 0.065654,1.624152 0.3254704,2.417299 0.8260271,2.521628 2.959715,4.580409 5.5728347,5.377187 0.8318441,0.253642 4.3389826,0.460643 4.3389826,0.256098 0,-0.06791 -0.611965,-0.732493 -1.359923,-1.476856 C 9.6312763,20.652945 9.2856942,20.165795 9.4065924,19.615349 9.5192492,19.102426 9.9389855,18.79322 10.522605,18.79322 c 0.367599,0 0.650706,0.191698 1.652056,1.118644 1.517552,1.404791 4.391103,4.407823 4.607525,4.815135 0.132316,0.249024 0.120812,0.395439 -0.06121,0.779013 -0.260248,0.548433 -4.586596,4.987691 -5.468443,5.611161 -0.6668,0.471432 -0.754102,0.489062 -1.229794,0.248359 z"
     id="path4571"
     inkscape:connector-curvature="0" />
  <path
     style="fill:#ff0000;stroke:none;stroke-width:0.13559322"
     d="m 9.7370274,31.142633 c -0.73661,-0.73661 -0.6160533,-0.983491 1.6173086,-3.312001 0.983479,-1.025379 1.236863,-1.363353 1.091248,-1.455551 -0.104308,-0.06605 -0.64888,-0.121016 -1.210158,-0.122158 C 7.6205707,26.245574 5.1605195,25.237738 2.905029,22.840138 2.092307,21.97621 1.7275033,21.445694 1.2053368,20.368361 0.32920228,18.560722 0.059417,17.231983 0.1573859,15.20702 0.29457588,12.37138 1.089792,10.630824 3.2335482,8.4739666 4.4530222,7.24704 4.8318152,6.9543982 5.8152542,6.479434 7.9378959,5.4542777 10.538335,5.0604447 11.288494,5.6505193 c 0.461114,0.3627126 0.484051,1.0479821 0.05189,1.550395 C 11.087217,7.495238 10.861195,7.5772146 10.01835,7.6804065 7.7050881,7.9636258 5.7334022,8.9930038 4.3940806,10.616726 c -1.346712,1.632682 -1.8975406,3.18513 -1.8908107,5.329037 0.00915,2.914703 1.6822359,5.593099 4.3979607,7.040565 1.0907436,0.58136 2.130589,0.81745 4.0326634,0.915585 1.38874,0.07165 1.661017,0.05396 1.661017,-0.107898 0,-0.106479 -0.494664,-0.680301 -1.099254,-1.275162 -1.45064,-1.427296 -2.154983,-2.318606 -2.154983,-2.727022 0,-0.500998 0.5709284,-0.998611 1.145741,-0.998611 0.416909,0 0.663118,0.167554 1.87057,1.272985 1.535214,1.405501 4.170191,4.180748 4.42522,4.660794 0.28293,0.532562 -0.171423,1.153707 -2.752808,3.763374 -3.162561,3.197209 -3.524057,3.420578 -4.2923736,2.65226 z"
     id="path4573"
     inkscape:connector-curvature="0" />
  <path
     style="fill:#ff0000;stroke:none;stroke-width:0.13559322"
     d="m 20.696161,26.014574 c -0.279981,-0.292236 -0.372432,-0.524078 -0.372432,-0.93395 0,-0.824239 0.379436,-1.105038 1.720417,-1.273183 1.330305,-0.166805 2.843563,-0.665912 3.715568,-1.225475 1.080388,-0.693284 2.340815,-2.145127 2.957421,-3.406552 0.821619,-1.680838 1.00496,-3.192762 0.615689,-5.077335 -0.539368,-2.61125 -2.658255,-5.0174783 -5.198092,-5.9030027 -0.437105,-0.1523985 -1.278775,-0.2919734 -1.980495,-0.3284274 -0.671186,-0.034868 -1.540678,-0.08794 -1.932203,-0.1179373 -0.391526,-0.029998 -0.711865,-0.013096 -0.711865,0.037561 0,0.050656 0.460756,0.5496374 1.023901,1.1088472 1.548304,1.5374822 2.230337,2.4063772 2.230337,2.8413972 0,0.857554 -0.972296,1.44243 -1.718917,1.034001 C 20.667266,12.563615 16.360697,8.4009406 15.695479,7.5992648 15.227317,7.0350687 15.043783,6.4652137 15.195458,6.046755 c 0.18724,-0.5165751 5.522494,-5.80463074 6.023145,-5.96986046 1.024252,-0.33803359 1.896873,0.71361186 1.389356,1.67439236 -0.08605,0.162894 -0.474753,0.6317639 -0.863794,1.0419334 -0.389041,0.4101695 -1.069868,1.1271187 -1.512949,1.5932204 l -0.805602,0.8474576 1.025329,0.024039 c 2.4749,0.058026 3.264407,0.1535122 4.381893,0.5299658 1.01606,0.342286 1.579398,0.6257767 2.62937,1.3231874 0.957305,0.635859 2.555953,2.3064946 3.01722,3.1530875 1.177218,2.160618 1.380173,2.862388 1.468371,5.077289 0.0602,1.511879 0.02851,1.934323 -0.218323,2.910427 -1.161405,4.592731 -4.776658,7.613773 -9.643483,8.058455 -0.996115,0.09101 -1.025189,0.08483 -1.38983,-0.295775 z"
     id="path4575"
     inkscape:connector-curvature="0" />
</svg>
