<?xml version="1.0" encoding="utf-8"?>
<!-- Generator: Adobe Illustrator 16.0.0, SVG Export Plug-In . SVG Version: 6.00 Build 0)  -->
<!DOCTYPE svg PUBLIC "-//W3C//DTD SVG 1.1//EN" "http://www.w3.org/Graphics/SVG/1.1/DTD/svg11.dtd">
<svg version="1.1" id="Layer_1" xmlns="http://www.w3.org/2000/svg" xmlns:xlink="http://www.w3.org/1999/xlink" x="0px" y="0px"
	 width="4.219px" height="8px" viewBox="0 0 4.219 8" enable-background="new 0 0 4.219 8" xml:space="preserve">
<g>
	<rect x="-60.074" y="9.739" fill="#FFFFFF" width="18.002" height="2.55"/>
	<rect x="-60.074" y="16.114" fill="#FFFFFF" width="18.002" height="2.55"/>
	<rect x="-60.074" y="2.725" fill="#FFFFFF" width="18.002" height="2.551"/>
</g>
<g>
	<rect x="-35.074" y="9.738" fill="#333333" width="18.002" height="2.551"/>
	<rect x="-35.074" y="16.113" fill="#333333" width="18.002" height="2.551"/>
	<rect x="-35.074" y="2.725" fill="#333333" width="18.002" height="2.551"/>
</g>
<g>
	<g>
		<defs>
			<rect id="SVGID_1_" width="4.219" height="8"/>
		</defs>
		<clipPath id="SVGID_2_">
			<use xlink:href="#SVGID_1_"  overflow="visible"/>
		</clipPath>
		<path clip-path="url(#SVGID_2_)" fill="#666666" d="M4.15,3.832L0.387,0.069c-0.089-0.089-0.231-0.089-0.32,0
			c-0.088,0.089-0.088,0.23,0,0.319L3.67,3.991L0.066,7.594c-0.088,0.089-0.088,0.23,0,0.319C0.11,7.957,0.169,7.98,0.226,7.98
			c0.058,0,0.116-0.022,0.159-0.067L4.148,4.15C4.236,4.063,4.236,3.918,4.15,3.832L4.15,3.832z M4.15,3.832"/>
	</g>
</g>
</svg>
