<svg width="45" height="45" viewBox="0 0 45 45" fill="none" xmlns="http://www.w3.org/2000/svg">
<mask id="mask0" mask-type="alpha" maskUnits="userSpaceOnUse" x="0" y="0" width="45" height="45">
<path fill-rule="evenodd" clip-rule="evenodd" d="M0.618164 0.800781H44.375V44.5628H0.618164V0.800781Z" fill="white"/>
</mask>
<g mask="url(#mask0)">
<path fill-rule="evenodd" clip-rule="evenodd" d="M21.0353 43.104H42.9163V2.25954H21.0353V43.104ZM43.6457 44.5628H20.3059C19.9034 44.5628 19.5766 44.2368 19.5766 43.8334V1.53012C19.5766 1.12754 19.9034 0.800781 20.3059 0.800781H43.6457C44.049 0.800781 44.375 1.12754 44.375 1.53012V43.8334C44.375 44.2368 44.049 44.5628 43.6457 44.5628Z" fill="#02643D"/>
<path fill-rule="evenodd" clip-rule="evenodd" d="M21.0353 43.104H42.9163V2.25954H21.0353V43.104ZM43.6457 44.5628H20.3059C19.9034 44.5628 19.5766 44.2368 19.5766 43.8334V1.53012C19.5766 1.12754 19.9034 0.800781 20.3059 0.800781H43.6457C44.049 0.800781 44.375 1.12754 44.375 1.53012V43.8334C44.375 44.2368 44.049 44.5628 43.6457 44.5628Z" fill="#60C0AA"/>
<path fill-rule="evenodd" clip-rule="evenodd" d="M2.0718 43.104H19.5766V24.8699H2.0718V43.104ZM20.3059 44.5628H1.34237C0.939799 44.5628 0.613037 44.2368 0.613037 43.8334V24.1406C0.613037 23.7372 0.939799 23.4111 1.34237 23.4111H20.3059C20.7085 23.4111 21.0353 23.7372 21.0353 24.1406V43.8334C21.0353 44.2368 20.7085 44.5628 20.3059 44.5628Z" fill="#02643D"/>
<path fill-rule="evenodd" clip-rule="evenodd" d="M2.0718 43.104H19.5766V24.8699H2.0718V43.104ZM20.3059 44.5628H1.34237C0.939799 44.5628 0.613037 44.2368 0.613037 43.8334V24.1406C0.613037 23.7372 0.939799 23.4111 1.34237 23.4111H20.3059C20.7085 23.4111 21.0353 23.7372 21.0353 24.1406V43.8334C21.0353 44.2368 20.7085 44.5628 20.3059 44.5628Z" fill="#60C0AA"/>
</g>
<path fill-rule="evenodd" clip-rule="evenodd" d="M3.53048 23.411H16.6591V10.2824H3.53048V23.411ZM17.3885 24.8698H2.80115C2.39857 24.8698 2.07181 24.5438 2.07181 24.1404V9.55307C2.07181 9.15049 2.39857 8.82373 2.80115 8.82373H17.3885C17.7911 8.82373 18.1178 9.15049 18.1178 9.55307V24.1404C18.1178 24.5438 17.7911 24.8698 17.3885 24.8698Z" fill="#02643D"/>
<path fill-rule="evenodd" clip-rule="evenodd" d="M3.53048 23.411H16.6591V10.2824H3.53048V23.411ZM17.3885 24.8698H2.80115C2.39857 24.8698 2.07181 24.5438 2.07181 24.1404V9.55307C2.07181 9.15049 2.39857 8.82373 2.80115 8.82373H17.3885C17.7911 8.82373 18.1178 9.15049 18.1178 9.55307V24.1404C18.1178 24.5438 17.7911 24.8698 17.3885 24.8698Z" fill="#60C0AA"/>
<path fill-rule="evenodd" clip-rule="evenodd" d="M9.36544 27.7873H12.2829V24.8699H9.36544V27.7873ZM13.0123 29.2461H8.6361C8.23344 29.2461 7.90668 28.9201 7.90668 28.5168V24.1406C7.90668 23.7372 8.23344 23.4111 8.6361 23.4111H13.0123C13.4149 23.4111 13.7416 23.7372 13.7416 24.1406V28.5168C13.7416 28.9201 13.4149 29.2461 13.0123 29.2461Z" fill="#02643D"/>
<path fill-rule="evenodd" clip-rule="evenodd" d="M9.36544 27.7873H12.2829V24.8699H9.36544V27.7873ZM13.0123 29.2461H8.6361C8.23344 29.2461 7.90668 28.9201 7.90668 28.5168V24.1406C7.90668 23.7372 8.23344 23.4111 8.6361 23.4111H13.0123C13.4149 23.4111 13.7416 23.7372 13.7416 24.1406V28.5168C13.7416 28.9201 13.4149 29.2461 13.0123 29.2461Z" fill="#60C0AA"/>
<path fill-rule="evenodd" clip-rule="evenodd" d="M8.6361 13.1999H11.5535V10.2824H8.6361V13.1999ZM12.2829 14.6586H7.90668C7.5041 14.6586 7.17734 14.3318 7.17734 13.9293V9.55307C7.17734 9.15049 7.5041 8.82373 7.90668 8.82373H12.2829C12.6855 8.82373 13.0123 9.15049 13.0123 9.55307V13.9293C13.0123 14.3318 12.6855 14.6586 12.2829 14.6586Z" fill="#02643D"/>
<path fill-rule="evenodd" clip-rule="evenodd" d="M8.6361 13.1999H11.5535V10.2824H8.6361V13.1999ZM12.2829 14.6586H7.90668C7.5041 14.6586 7.17734 14.3318 7.17734 13.9293V9.55307C7.17734 9.15049 7.5041 8.82373 7.90668 8.82373H12.2829C12.6855 8.82373 13.0123 9.15049 13.0123 9.55307V13.9293C13.0123 14.3318 12.6855 14.6586 12.2829 14.6586Z" fill="#60C0AA"/>
<path fill-rule="evenodd" clip-rule="evenodd" d="M31.9758 5.17698H34.8933V2.25954H31.9758V5.17698ZM35.6226 6.63574H31.2464C30.8431 6.63574 30.5171 6.30898 30.5171 5.90632V1.53012C30.5171 1.12754 30.8431 0.800781 31.2464 0.800781H35.6226C36.026 0.800781 36.352 1.12754 36.352 1.53012V5.90632C36.352 6.30898 36.026 6.63574 35.6226 6.63574Z" fill="#02643D"/>
<path fill-rule="evenodd" clip-rule="evenodd" d="M31.9758 5.17698H34.8933V2.25954H31.9758V5.17698ZM35.6226 6.63574H31.2464C30.8431 6.63574 30.5171 6.30898 30.5171 5.90632V1.53012C30.5171 1.12754 30.8431 0.800781 31.2464 0.800781H35.6226C36.026 0.800781 36.352 1.12754 36.352 1.53012V5.90632C36.352 6.30898 36.026 6.63574 35.6226 6.63574Z" fill="#60C0AA"/>
<path fill-rule="evenodd" clip-rule="evenodd" d="M31.2464 35.0811V35.8104C31.2464 36.6149 31.9006 37.2692 32.7052 37.2692C33.5096 37.2692 34.1639 36.6149 34.1639 35.8104V35.0811H31.2464ZM32.7052 38.7278C31.0962 38.7278 29.7877 37.4194 29.7877 35.8104V34.3517C29.7877 33.9483 30.1137 33.6223 30.5171 33.6223H34.8933C35.2966 33.6223 35.6226 33.9483 35.6226 34.3517V35.8104C35.6226 37.4194 34.3141 38.7278 32.7052 38.7278Z" fill="#02643D"/>
<path fill-rule="evenodd" clip-rule="evenodd" d="M31.2464 35.0811V35.8104C31.2464 36.6149 31.9006 37.2692 32.7052 37.2692C33.5096 37.2692 34.1639 36.6149 34.1639 35.8104V35.0811H31.2464ZM32.7052 38.7278C31.0962 38.7278 29.7877 37.4194 29.7877 35.8104V34.3517C29.7877 33.9483 30.1137 33.6223 30.5171 33.6223H34.8933C35.2966 33.6223 35.6226 33.9483 35.6226 34.3517V35.8104C35.6226 37.4194 34.3141 38.7278 32.7052 38.7278Z" fill="#60C0AA"/>
<path fill-rule="evenodd" clip-rule="evenodd" d="M30.5171 41.6453H34.8933V40.1865H30.5171V41.6453Z" fill="#02643D"/>
<path fill-rule="evenodd" clip-rule="evenodd" d="M30.5171 41.6453H34.8933V40.1865H30.5171V41.6453Z" fill="#60C0AA"/>
<path fill-rule="evenodd" clip-rule="evenodd" d="M31.9758 40.916H33.4345V37.9985H31.9758V40.916Z" fill="#02643D"/>
<path fill-rule="evenodd" clip-rule="evenodd" d="M31.9758 40.916H33.4345V37.9985H31.9758V40.916Z" fill="#60C0AA"/>
<path fill-rule="evenodd" clip-rule="evenodd" d="M37.0814 41.6453H41.4576V40.1865H37.0814V41.6453Z" fill="#02643D"/>
<path fill-rule="evenodd" clip-rule="evenodd" d="M37.0814 41.6453H41.4576V40.1865H37.0814V41.6453Z" fill="#60C0AA"/>
<path fill-rule="evenodd" clip-rule="evenodd" d="M38.54 38.7278H39.9988V34.3516H38.54V38.7278Z" fill="#02643D"/>
<path fill-rule="evenodd" clip-rule="evenodd" d="M38.54 38.7278H39.9988V34.3516H38.54V38.7278Z" fill="#60C0AA"/>
<path fill-rule="evenodd" clip-rule="evenodd" d="M40.9419 37.0553L39.2695 35.3829L37.597 37.0553L36.5657 36.024L38.7538 33.8359C39.039 33.5508 39.4999 33.5508 39.7851 33.8359L41.9732 36.024L40.9419 37.0553Z" fill="#02643D"/>
<path fill-rule="evenodd" clip-rule="evenodd" d="M40.9419 37.0553L39.2695 35.3829L37.597 37.0553L36.5657 36.024L38.7538 33.8359C39.039 33.5508 39.4999 33.5508 39.7851 33.8359L41.9732 36.024L40.9419 37.0553Z" fill="#60C0AA"/>
<path fill-rule="evenodd" clip-rule="evenodd" d="M23.9528 36.5398H26.8702C26.8702 35.7353 26.216 35.0811 25.4115 35.0811C24.607 35.0811 23.9528 35.7353 23.9528 36.5398ZM27.5996 37.9985H23.2234C22.82 37.9985 22.494 37.6725 22.494 37.2692V36.5398C22.494 34.9308 23.8025 33.6223 25.4115 33.6223C27.0205 33.6223 28.329 34.9308 28.329 36.5398V37.2692C28.329 37.6725 28.0029 37.9985 27.5996 37.9985Z" fill="#02643D"/>
<path fill-rule="evenodd" clip-rule="evenodd" d="M23.9528 36.5398H26.8702C26.8702 35.7353 26.216 35.0811 25.4115 35.0811C24.607 35.0811 23.9528 35.7353 23.9528 36.5398ZM27.5996 37.9985H23.2234C22.82 37.9985 22.494 37.6725 22.494 37.2692V36.5398C22.494 34.9308 23.8025 33.6223 25.4115 33.6223C27.0205 33.6223 28.329 34.9308 28.329 36.5398V37.2692C28.329 37.6725 28.0029 37.9985 27.5996 37.9985Z" fill="#60C0AA"/>
<path fill-rule="evenodd" clip-rule="evenodd" d="M25.4115 41.6452H23.2234V40.1865H24.6821V37.269H26.1409V40.9158C26.1409 41.3192 25.8148 41.6452 25.4115 41.6452Z" fill="#02643D"/>
<path fill-rule="evenodd" clip-rule="evenodd" d="M25.4115 41.6452H23.2234V40.1865H24.6821V37.269H26.1409V40.9158C26.1409 41.3192 25.8148 41.6452 25.4115 41.6452Z" fill="#60C0AA"/>
<path fill-rule="evenodd" clip-rule="evenodd" d="M13.7416 21.9524H15.2004V20.4937H13.7416V21.9524Z" fill="#02643D"/>
<path fill-rule="evenodd" clip-rule="evenodd" d="M13.7416 21.9524H15.2004V20.4937H13.7416V21.9524Z" fill="#60C0AA"/>
<path fill-rule="evenodd" clip-rule="evenodd" d="M10.8242 21.9524H12.2829V20.4937H10.8242V21.9524Z" fill="#02643D"/>
<path fill-rule="evenodd" clip-rule="evenodd" d="M10.8242 21.9524H12.2829V20.4937H10.8242V21.9524Z" fill="#60C0AA"/>
<path fill-rule="evenodd" clip-rule="evenodd" d="M7.90668 21.9524H9.36544V20.4937H7.90668V21.9524Z" fill="#02643D"/>
<path fill-rule="evenodd" clip-rule="evenodd" d="M7.90668 21.9524H9.36544V20.4937H7.90668V21.9524Z" fill="#60C0AA"/>
<path fill-rule="evenodd" clip-rule="evenodd" d="M16.6591 41.6453H18.1178V40.1865H16.6591V41.6453Z" fill="#02643D"/>
<path fill-rule="evenodd" clip-rule="evenodd" d="M16.6591 41.6453H18.1178V40.1865H16.6591V41.6453Z" fill="#60C0AA"/>
<path fill-rule="evenodd" clip-rule="evenodd" d="M13.7416 41.6453H15.2004V40.1865H13.7416V41.6453Z" fill="#02643D"/>
<path fill-rule="evenodd" clip-rule="evenodd" d="M13.7416 41.6453H15.2004V40.1865H13.7416V41.6453Z" fill="#60C0AA"/>
<path fill-rule="evenodd" clip-rule="evenodd" d="M10.8242 41.6453H12.2829V40.1865H10.8242V41.6453Z" fill="#02643D"/>
<path fill-rule="evenodd" clip-rule="evenodd" d="M10.8242 41.6453H12.2829V40.1865H10.8242V41.6453Z" fill="#60C0AA"/>
</svg>
