<svg width="30" height="24" viewBox="0 0 30 24" fill="none" xmlns="http://www.w3.org/2000/svg">
<path d="M12.9872 23.3944C14.1875 23.3944 15.1605 22.4214 15.1605 21.2211C15.1605 20.0209 14.1875 19.0479 12.9872 19.0479C11.7869 19.0479 10.8139 20.0209 10.8139 21.2211C10.8139 22.4214 11.7869 23.3944 12.9872 23.3944Z" fill="#3E3F55"/>
<path d="M23.3531 23.3931C24.5527 23.3931 25.5252 22.4207 25.5252 21.2211C25.5252 20.0215 24.5527 19.0491 23.3531 19.0491C22.1535 19.0491 21.1811 20.0215 21.1811 21.2211C21.1811 22.4207 22.1535 23.3931 23.3531 23.3931Z" fill="#3E3F55"/>
<path fill-rule="evenodd" clip-rule="evenodd" d="M12.1638 16.5493H24.4385C24.9514 16.5493 25.4109 16.2351 25.596 15.7594L29.3216 6.20199C29.4706 5.81949 29.4209 5.38856 29.1899 5.04953C28.9577 4.7105 28.574 4.50807 28.1641 4.50807H9.28642L7.90298 0.958798C7.71669 0.481919 7.2572 0.167725 6.74555 0.167725H1.79668C1.11117 0.167725 0.55481 0.724084 0.55481 1.4096C0.55481 2.09511 1.11117 2.65147 1.79668 2.65147H5.89735L11.0064 15.7582C11.1927 16.2351 11.6522 16.5493 12.1638 16.5493ZM23.5903 14.0655H13.012L10.2551 6.99182H26.3473L23.5903 14.0655Z" fill="#3E3F55"/>
</svg>
