<svg width="58" height="45" viewBox="0 0 58 45" fill="none" xmlns="http://www.w3.org/2000/svg">
<mask id="mask0" mask-type="alpha" maskUnits="userSpaceOnUse" x="0" y="0" width="58" height="45">
<path fill-rule="evenodd" clip-rule="evenodd" d="M0.664734 0.849121H57.3789V44.4493H0.664734V0.849121Z" fill="white"/>
</mask>
<g mask="url(#mask0)">
<path fill-rule="evenodd" clip-rule="evenodd" d="M54.673 39.714C54.673 40.833 53.7626 41.7434 52.6436 41.7434H15.9007C14.7817 41.7434 13.8713 40.833 13.8713 39.714V18.4668C13.8713 17.4037 14.6935 16.5305 15.7351 16.4458H45.5185C45.5685 16.4458 45.6175 16.4427 45.6659 16.4375H52.6435C53.7625 16.4375 54.6729 17.3478 54.6729 18.4668V39.714H54.673ZM5.39338 28.8605C4.27437 28.8605 3.36395 27.95 3.36395 26.831V16.4458H11.6195C11.3287 17.0591 11.1654 17.7443 11.1654 18.4668V28.8605H5.39338ZM5.39338 3.55499H42.1365C43.2555 3.55499 44.1659 4.46541 44.1659 5.58442V7.47338H3.36395V5.58442C3.36395 4.46541 4.27437 3.55499 5.39338 3.55499ZM15.9007 13.7315C15.8093 13.7315 15.7186 13.7348 15.6284 13.7399H3.36395V10.1794H44.1659V13.7315H15.9007ZM52.6436 13.7315H46.8718V5.58442C46.8718 2.97338 44.7476 0.849121 42.1365 0.849121H5.39338C2.78234 0.849121 0.658081 2.97338 0.658081 5.58442V26.831C0.658081 29.4421 2.78234 31.5663 5.39338 31.5663H11.1654V39.714C11.1654 42.325 13.2897 44.4493 15.9007 44.4493H52.6436C55.2546 44.4493 57.3789 42.325 57.3789 39.714V18.4668C57.3789 15.8558 55.2546 13.7315 52.6436 13.7315Z" fill="#02643D"/>
<path fill-rule="evenodd" clip-rule="evenodd" d="M54.673 39.714C54.673 40.833 53.7626 41.7434 52.6436 41.7434H15.9007C14.7817 41.7434 13.8713 40.833 13.8713 39.714V18.4668C13.8713 17.4037 14.6935 16.5305 15.7351 16.4458H45.5185C45.5685 16.4458 45.6175 16.4427 45.6659 16.4375H52.6435C53.7625 16.4375 54.6729 17.3478 54.6729 18.4668V39.714H54.673ZM5.39338 28.8605C4.27437 28.8605 3.36395 27.95 3.36395 26.831V16.4458H11.6195C11.3287 17.0591 11.1654 17.7443 11.1654 18.4668V28.8605H5.39338ZM5.39338 3.55499H42.1365C43.2555 3.55499 44.1659 4.46541 44.1659 5.58442V7.47338H3.36395V5.58442C3.36395 4.46541 4.27437 3.55499 5.39338 3.55499ZM15.9007 13.7315C15.8093 13.7315 15.7186 13.7348 15.6284 13.7399H3.36395V10.1794H44.1659V13.7315H15.9007ZM52.6436 13.7315H46.8718V5.58442C46.8718 2.97338 44.7476 0.849121 42.1365 0.849121H5.39338C2.78234 0.849121 0.658081 2.97338 0.658081 5.58442V26.831C0.658081 29.4421 2.78234 31.5663 5.39338 31.5663H11.1654V39.714C11.1654 42.325 13.2897 44.4493 15.9007 44.4493H52.6436C55.2546 44.4493 57.3789 42.325 57.3789 39.714V18.4668C57.3789 15.8558 55.2546 13.7315 52.6436 13.7315Z" fill="#60C0AA"/>
</g>
<path fill-rule="evenodd" clip-rule="evenodd" d="M38.3476 32.9065C36.2435 32.9065 34.5317 31.1946 34.5317 29.0904C34.5317 26.9863 36.2435 25.2744 38.3476 25.2744C40.4517 25.2744 42.1635 26.9863 42.1635 29.0904C42.1635 31.1946 40.4517 32.9065 38.3476 32.9065ZM26.3802 29.0904C26.3802 26.9859 28.0923 25.2737 30.1969 25.2737C31.0683 25.2737 31.8926 25.5658 32.5583 26.0926C32.0914 26.9909 31.8257 28.01 31.8257 29.0902C31.8257 30.1707 32.0914 31.1897 32.5583 32.088C31.8927 32.6151 31.0683 32.9069 30.1969 32.9069C28.0923 32.907 26.3802 31.1949 26.3802 29.0904ZM38.3476 22.5685C36.8086 22.5685 35.3935 23.1055 34.2769 24.0004C33.1322 23.0782 31.7057 22.5679 30.1969 22.5679C26.6003 22.5679 23.6743 25.4939 23.6743 29.0904C23.6743 32.6869 26.6003 35.6129 30.1969 35.6129C31.7057 35.6129 33.1322 35.1026 34.2769 34.1806C35.3935 35.0754 36.8086 35.6123 38.3476 35.6123C41.9438 35.6123 44.8695 32.6867 44.8695 29.0904C44.8695 25.4942 41.9438 22.5685 38.3476 22.5685Z" fill="#02643D"/>
<path fill-rule="evenodd" clip-rule="evenodd" d="M38.3476 32.9065C36.2435 32.9065 34.5317 31.1946 34.5317 29.0904C34.5317 26.9863 36.2435 25.2744 38.3476 25.2744C40.4517 25.2744 42.1635 26.9863 42.1635 29.0904C42.1635 31.1946 40.4517 32.9065 38.3476 32.9065ZM26.3802 29.0904C26.3802 26.9859 28.0923 25.2737 30.1969 25.2737C31.0683 25.2737 31.8926 25.5658 32.5583 26.0926C32.0914 26.9909 31.8257 28.01 31.8257 29.0902C31.8257 30.1707 32.0914 31.1897 32.5583 32.088C31.8927 32.6151 31.0683 32.9069 30.1969 32.9069C28.0923 32.907 26.3802 31.1949 26.3802 29.0904ZM38.3476 22.5685C36.8086 22.5685 35.3935 23.1055 34.2769 24.0004C33.1322 23.0782 31.7057 22.5679 30.1969 22.5679C26.6003 22.5679 23.6743 25.4939 23.6743 29.0904C23.6743 32.6869 26.6003 35.6129 30.1969 35.6129C31.7057 35.6129 33.1322 35.1026 34.2769 34.1806C35.3935 35.0754 36.8086 35.6123 38.3476 35.6123C41.9438 35.6123 44.8695 32.6867 44.8695 29.0904C44.8695 25.4942 41.9438 22.5685 38.3476 22.5685Z" fill="#60C0AA"/>
</svg>
