<svg width="44" height="45" viewBox="0 0 44 45" fill="none" xmlns="http://www.w3.org/2000/svg">
<mask id="mask0" mask-type="alpha" maskUnits="userSpaceOnUse" x="0" y="0" width="43" height="45">
<path fill-rule="evenodd" clip-rule="evenodd" d="M0.209167 0.88623H42.3468V44.8007H0.209167V0.88623Z" fill="white"/>
</mask>
<g mask="url(#mask0)">
<path fill-rule="evenodd" clip-rule="evenodd" d="M38.0396 24.5245L39.6776 27.875C39.986 28.5062 39.7417 29.2586 39.121 29.5879L35.8266 31.3358C34.7763 31.8932 34.0559 32.8845 33.8505 34.0559L33.2061 37.7292C33.0847 38.4211 32.445 38.886 31.7491 38.7877L28.0564 38.2654C26.8789 38.0986 25.7136 38.4776 24.8589 39.3043L22.1785 41.8973C21.6735 42.3858 20.8826 42.3858 20.3776 41.8973L17.6972 39.3043C16.9748 38.6055 16.0305 38.2269 15.0446 38.2269C14.864 38.2269 14.6819 38.2396 14.4996 38.2654L10.8069 38.7877C10.1117 38.886 9.47138 38.4211 9.34993 37.7292L8.70563 34.0558C8.50012 32.8845 7.77983 31.8931 6.7294 31.3358L3.43498 29.5879C2.81435 29.2586 2.5699 28.5062 2.87842 27.875L4.51628 24.5245C5.03845 23.4562 5.03845 22.2308 4.51628 21.1625L2.87842 17.8119C2.5699 17.1807 2.81435 16.4284 3.43498 16.0992L6.7294 14.3512C7.77974 13.7938 8.50004 12.8024 8.70554 11.6311L9.34985 7.95778C9.4713 7.26579 10.111 6.80092 10.8068 6.89921L14.4995 7.42163C15.6767 7.58829 16.8425 7.20944 17.6971 6.38262L20.3776 3.78962C20.8824 3.30125 21.6734 3.30125 22.1785 3.78962L24.8589 6.38262C25.7136 7.20944 26.8791 7.58829 28.0564 7.42163L31.749 6.89921C32.4444 6.80092 33.0847 7.26579 33.206 7.95778L33.8504 11.6312C34.0558 12.8024 34.7762 13.7938 35.8266 14.3512L39.121 16.0992C39.7417 16.4284 39.986 17.1807 39.6776 17.8119L38.0396 21.1625C37.5175 22.2307 37.5175 23.4562 38.0396 24.5245ZM40.3151 23.4122C40.1384 23.0507 40.1384 22.6361 40.3151 22.2747L41.9531 18.9242C42.8649 17.0586 42.1424 14.8349 40.3082 13.8618L37.0138 12.1138C36.6583 11.9252 36.4146 11.5897 36.3451 11.1935L35.7007 7.5201C35.3419 5.47491 33.4501 4.10054 31.3944 4.39138L27.7017 4.91372C27.3031 4.9699 26.909 4.84185 26.6199 4.56215L23.9395 1.96915C22.447 0.5253 20.1089 0.525214 18.6165 1.96915L15.9361 4.56224C15.6468 4.84202 15.2527 4.9699 14.8542 4.91381L11.1616 4.39147C9.10532 4.10045 7.21409 5.475 6.85523 7.52018L6.21092 11.1935C6.14136 11.5897 5.89769 11.9252 5.54235 12.1138L2.24792 13.8618C0.413643 14.8349 -0.308883 17.0587 0.603024 18.9242L2.2408 22.2747C2.41749 22.6362 2.41749 23.0508 2.2408 23.4122L0.602938 26.7629C-0.308969 28.6284 0.413558 30.852 2.24783 31.8253L5.54226 33.5732C5.89769 33.7618 6.14136 34.0972 6.21092 34.4935L6.85523 38.1668C7.18192 40.0287 8.77836 41.3346 10.6132 41.3344C10.794 41.3344 10.9773 41.3217 11.1617 41.2956L14.8543 40.7733C15.2525 40.7168 15.6469 40.8452 15.9362 41.1249L18.6165 43.7179C19.3629 44.4399 20.3203 44.8008 21.278 44.8007C22.2355 44.8006 23.1934 44.4397 23.9395 43.7179L26.62 41.1249C26.9092 40.8452 27.3034 40.7173 27.7018 40.7733L31.3944 41.2956C33.451 41.5866 35.342 40.2121 35.7008 38.1668L36.3452 34.4936C36.4147 34.0973 36.6584 33.7619 37.0138 33.5733L40.3082 31.8253C42.1424 30.8521 42.8649 28.6284 41.9531 26.7629L40.3151 23.4122Z" fill="#02643D"/>
<path fill-rule="evenodd" clip-rule="evenodd" d="M38.0396 24.5245L39.6776 27.875C39.986 28.5062 39.7417 29.2586 39.121 29.5879L35.8266 31.3358C34.7763 31.8932 34.0559 32.8845 33.8505 34.0559L33.2061 37.7292C33.0847 38.4211 32.445 38.886 31.7491 38.7877L28.0564 38.2654C26.8789 38.0986 25.7136 38.4776 24.8589 39.3043L22.1785 41.8973C21.6735 42.3858 20.8826 42.3858 20.3776 41.8973L17.6972 39.3043C16.9748 38.6055 16.0305 38.2269 15.0446 38.2269C14.864 38.2269 14.6819 38.2396 14.4996 38.2654L10.8069 38.7877C10.1117 38.886 9.47138 38.4211 9.34993 37.7292L8.70563 34.0558C8.50012 32.8845 7.77983 31.8931 6.7294 31.3358L3.43498 29.5879C2.81435 29.2586 2.5699 28.5062 2.87842 27.875L4.51628 24.5245C5.03845 23.4562 5.03845 22.2308 4.51628 21.1625L2.87842 17.8119C2.5699 17.1807 2.81435 16.4284 3.43498 16.0992L6.7294 14.3512C7.77974 13.7938 8.50004 12.8024 8.70554 11.6311L9.34985 7.95778C9.4713 7.26579 10.111 6.80092 10.8068 6.89921L14.4995 7.42163C15.6767 7.58829 16.8425 7.20944 17.6971 6.38262L20.3776 3.78962C20.8824 3.30125 21.6734 3.30125 22.1785 3.78962L24.8589 6.38262C25.7136 7.20944 26.8791 7.58829 28.0564 7.42163L31.749 6.89921C32.4444 6.80092 33.0847 7.26579 33.206 7.95778L33.8504 11.6312C34.0558 12.8024 34.7762 13.7938 35.8266 14.3512L39.121 16.0992C39.7417 16.4284 39.986 17.1807 39.6776 17.8119L38.0396 21.1625C37.5175 22.2307 37.5175 23.4562 38.0396 24.5245ZM40.3151 23.4122C40.1384 23.0507 40.1384 22.6361 40.3151 22.2747L41.9531 18.9242C42.8649 17.0586 42.1424 14.8349 40.3082 13.8618L37.0138 12.1138C36.6583 11.9252 36.4146 11.5897 36.3451 11.1935L35.7007 7.5201C35.3419 5.47491 33.4501 4.10054 31.3944 4.39138L27.7017 4.91372C27.3031 4.9699 26.909 4.84185 26.6199 4.56215L23.9395 1.96915C22.447 0.5253 20.1089 0.525214 18.6165 1.96915L15.9361 4.56224C15.6468 4.84202 15.2527 4.9699 14.8542 4.91381L11.1616 4.39147C9.10532 4.10045 7.21409 5.475 6.85523 7.52018L6.21092 11.1935C6.14136 11.5897 5.89769 11.9252 5.54235 12.1138L2.24792 13.8618C0.413643 14.8349 -0.308883 17.0587 0.603024 18.9242L2.2408 22.2747C2.41749 22.6362 2.41749 23.0508 2.2408 23.4122L0.602938 26.7629C-0.308969 28.6284 0.413558 30.852 2.24783 31.8253L5.54226 33.5732C5.89769 33.7618 6.14136 34.0972 6.21092 34.4935L6.85523 38.1668C7.18192 40.0287 8.77836 41.3346 10.6132 41.3344C10.794 41.3344 10.9773 41.3217 11.1617 41.2956L14.8543 40.7733C15.2525 40.7168 15.6469 40.8452 15.9362 41.1249L18.6165 43.7179C19.3629 44.4399 20.3203 44.8008 21.278 44.8007C22.2355 44.8006 23.1934 44.4397 23.9395 43.7179L26.62 41.1249C26.9092 40.8452 27.3034 40.7173 27.7018 40.7733L31.3944 41.2956C33.451 41.5866 35.342 40.2121 35.7008 38.1668L36.3452 34.4936C36.4147 34.0973 36.6584 33.7619 37.0138 33.5733L40.3082 31.8253C42.1424 30.8521 42.8649 28.6284 41.9531 26.7629L40.3151 23.4122Z" fill="#60C0AA"/>
</g>
<path fill-rule="evenodd" clip-rule="evenodd" d="M30.5313 13.5902C30.0368 13.0956 29.2349 13.0956 28.7403 13.5902L12.0247 30.3059C11.5301 30.8004 11.5301 31.6022 12.0247 32.0967C12.2719 32.3441 12.5961 32.4678 12.9201 32.4678C13.2441 32.4678 13.5684 32.3442 13.8155 32.0967L30.5312 15.3811C31.0259 14.8866 31.0259 14.0848 30.5313 13.5902Z" fill="#02643D"/>
<path fill-rule="evenodd" clip-rule="evenodd" d="M30.5313 13.5902C30.0368 13.0956 29.2349 13.0956 28.7403 13.5902L12.0247 30.3059C11.5301 30.8004 11.5301 31.6022 12.0247 32.0967C12.2719 32.3441 12.5961 32.4678 12.9201 32.4678C13.2441 32.4678 13.5684 32.3442 13.8155 32.0967L30.5312 15.3811C31.0259 14.8866 31.0259 14.0848 30.5313 13.5902Z" fill="#60C0AA"/>
<path fill-rule="evenodd" clip-rule="evenodd" d="M16.2123 13.9788C17.3762 13.9788 18.323 14.9257 18.323 16.0895C18.323 17.2534 17.3762 18.2002 16.2123 18.2002C15.0485 18.2002 14.1017 17.2534 14.1017 16.0895C14.1017 14.9257 15.0485 13.9788 16.2123 13.9788ZM16.2123 20.733C18.7727 20.733 20.8558 18.65 20.8558 16.0895C20.8558 13.5291 18.7727 11.446 16.2123 11.446C13.6519 11.446 11.5689 13.5291 11.5689 16.0895C11.5689 18.65 13.6519 20.733 16.2123 20.733Z" fill="#02643D"/>
<path fill-rule="evenodd" clip-rule="evenodd" d="M16.2123 13.9788C17.3762 13.9788 18.323 14.9257 18.323 16.0895C18.323 17.2534 17.3762 18.2002 16.2123 18.2002C15.0485 18.2002 14.1017 17.2534 14.1017 16.0895C14.1017 14.9257 15.0485 13.9788 16.2123 13.9788ZM16.2123 20.733C18.7727 20.733 20.8558 18.65 20.8558 16.0895C20.8558 13.5291 18.7727 11.446 16.2123 11.446C13.6519 11.446 11.5689 13.5291 11.5689 16.0895C11.5689 18.65 13.6519 20.733 16.2123 20.733Z" fill="#60C0AA"/>
<path fill-rule="evenodd" clip-rule="evenodd" d="M26.3435 31.7082C25.1797 31.7082 24.2329 30.7614 24.2329 29.5976C24.2329 28.4338 25.1797 27.487 26.3435 27.487C27.5073 27.487 28.4542 28.4338 28.4542 29.5976C28.4542 30.7614 27.5073 31.7082 26.3435 31.7082ZM26.3435 24.9541C23.7831 24.9541 21.7 27.0372 21.7 29.5976C21.7 32.158 23.7831 34.2411 26.3435 34.2411C28.9039 34.2411 30.987 32.158 30.987 29.5976C30.987 27.0372 28.9039 24.9541 26.3435 24.9541Z" fill="#02643D"/>
<path fill-rule="evenodd" clip-rule="evenodd" d="M26.3435 31.7082C25.1797 31.7082 24.2329 30.7614 24.2329 29.5976C24.2329 28.4338 25.1797 27.487 26.3435 27.487C27.5073 27.487 28.4542 28.4338 28.4542 29.5976C28.4542 30.7614 27.5073 31.7082 26.3435 31.7082ZM26.3435 24.9541C23.7831 24.9541 21.7 27.0372 21.7 29.5976C21.7 32.158 23.7831 34.2411 26.3435 34.2411C28.9039 34.2411 30.987 32.158 30.987 29.5976C30.987 27.0372 28.9039 24.9541 26.3435 24.9541Z" fill="#60C0AA"/>
</svg>
