<?xml version="1.0" encoding="utf-8"?>
<!-- Generator: Adobe Illustrator 16.0.0, SVG Export Plug-In . SVG Version: 6.00 Build 0)  -->
<!DOCTYPE svg PUBLIC "-//W3C//DTD SVG 1.1//EN" "http://www.w3.org/Graphics/SVG/1.1/DTD/svg11.dtd">
<svg version="1.1" id="Layer_1" xmlns="http://www.w3.org/2000/svg" xmlns:xlink="http://www.w3.org/1999/xlink" x="0px" y="0px"
	 width="200px" height="200px" viewBox="0 0 200 200" enable-background="new 0 0 200 200" xml:space="preserve">
<g>
	<g>
		<path fill="#F8981F" d="M100.003,86.684l-41.639-24.87l41.639-24.88l41.633,24.873L100.003,86.684z M64.426,61.813l35.577,21.248
			l35.577-21.255l-35.577-21.252L64.426,61.813z M64.426,61.813"/>
		<path fill="#F8981F" d="M100.003,102.227L60.592,78.685l1.596-2.665l37.814,22.587l37.809-22.587l1.593,2.665L100.003,102.227z
			 M100.003,102.227"/>
		<path fill="#F8981F" d="M100.003,117.771L60.592,94.228l1.596-2.664l37.814,22.586l37.809-22.586l1.593,2.664L100.003,117.771z
			 M100.003,117.771"/>
	</g>
</g>
<g>
	<path fill="#999999" d="M35.422,147.235h0.299c0.99,0.006,1.884,0.226,2.681,0.659s1.418,1.039,1.863,1.815
		s0.668,1.639,0.668,2.588c0,0.955-0.22,1.819-0.659,2.593s-1.056,1.38-1.85,1.819s-1.686,0.665-2.676,0.677h-0.325v1.872h-1.055
		v-1.872h-0.246c-1.008,0-1.912-0.216-2.711-0.646c-0.8-0.432-1.424-1.036-1.872-1.815s-0.672-1.649-0.672-2.61
		c0-0.955,0.224-1.824,0.672-2.605c0.448-0.783,1.074-1.391,1.876-1.824s1.705-0.65,2.707-0.65h0.246v-1.828h1.055V147.235z
		 M34.13,148.132c-1.283,0-2.306,0.381-3.067,1.143s-1.143,1.775-1.143,3.041c0,1.225,0.354,2.212,1.063,2.962
		s1.661,1.154,2.856,1.213l0.527,0.009v-8.367H34.13z M35.422,148.132v8.367h0.255c1.277,0,2.297-0.384,3.059-1.151
		s1.143-1.784,1.143-3.05c0-1.201-0.354-2.18-1.063-2.936s-1.658-1.163-2.848-1.222L35.422,148.132z"/>
	<path fill="#999999" d="M42.357,153.836c0-0.914,0.177-1.737,0.532-2.47s0.855-1.302,1.503-1.709s1.381-0.611,2.202-0.611
		c1.266,0,2.291,0.443,3.076,1.332c0.785,0.887,1.178,2.063,1.178,3.528v0.22c0,0.92-0.177,1.748-0.532,2.482
		c-0.354,0.736-0.854,1.303-1.499,1.701s-1.38,0.598-2.206,0.598c-1.26,0-2.284-0.443-3.072-1.332
		c-0.788-0.887-1.182-2.063-1.182-3.528V153.836z M43.412,154.126c0,1.137,0.294,2.07,0.883,2.799
		c0.589,0.73,1.361,1.095,2.316,1.095c0.949,0,1.718-0.364,2.307-1.095c0.589-0.729,0.883-1.691,0.883-2.887v-0.202
		c0-0.727-0.135-1.392-0.404-1.995s-0.647-1.07-1.134-1.402c-0.486-0.33-1.043-0.496-1.67-0.496c-0.938,0-1.702,0.368-2.294,1.104
		s-0.888,1.697-0.888,2.887V154.126z"/>
	<path fill="#999999" d="M59.654,150.118h-3.463v8.613h-1.055v-8.613h-3.331v-0.896h7.849V150.118z"/>
	<path fill="#999999" d="M60.427,153.836c0-0.914,0.177-1.737,0.531-2.47s0.855-1.302,1.504-1.709
		c0.646-0.407,1.381-0.611,2.201-0.611c1.266,0,2.291,0.443,3.076,1.332c0.785,0.887,1.178,2.063,1.178,3.528v0.22
		c0,0.92-0.178,1.748-0.531,2.482c-0.355,0.736-0.854,1.303-1.499,1.701s-1.38,0.598-2.206,0.598c-1.26,0-2.284-0.443-3.072-1.332
		c-0.788-0.887-1.182-2.063-1.182-3.528V153.836z M61.482,154.126c0,1.137,0.295,2.07,0.883,2.799
		c0.59,0.73,1.361,1.095,2.316,1.095c0.949,0,1.719-0.364,2.307-1.095c0.59-0.729,0.884-1.691,0.884-2.887v-0.202
		c0-0.727-0.135-1.392-0.404-1.995s-0.647-1.07-1.134-1.402c-0.486-0.33-1.043-0.496-1.67-0.496c-0.938,0-1.702,0.368-2.294,1.104
		s-0.888,1.697-0.888,2.887V154.126z"/>
	<path fill="#999999" d="M74.885,153.836c0-0.914,0.177-1.737,0.531-2.47s0.855-1.302,1.504-1.709
		c0.646-0.407,1.381-0.611,2.201-0.611c1.266,0,2.291,0.443,3.076,1.332c0.785,0.887,1.178,2.063,1.178,3.528v0.22
		c0,0.92-0.178,1.748-0.531,2.482c-0.355,0.736-0.854,1.303-1.499,1.701s-1.38,0.598-2.206,0.598c-1.26,0-2.284-0.443-3.072-1.332
		c-0.788-0.887-1.182-2.063-1.182-3.528V153.836z M75.94,154.126c0,1.137,0.295,2.07,0.883,2.799c0.59,0.73,1.361,1.095,2.316,1.095
		c0.949,0,1.719-0.364,2.307-1.095c0.59-0.729,0.884-1.691,0.884-2.887v-0.202c0-0.727-0.135-1.392-0.404-1.995
		s-0.647-1.07-1.134-1.402c-0.486-0.33-1.043-0.496-1.67-0.496c-0.938,0-1.702,0.368-2.294,1.104s-0.888,1.697-0.888,2.887V154.126z
		"/>
	<path fill="#999999" d="M92.182,150.118h-3.463v8.613h-1.055v-8.613h-3.331v-0.896h7.849V150.118z"/>
	<path fill="#999999" d="M96.717,158.02c0.732,0,1.346-0.206,1.842-0.62c0.494-0.412,0.763-0.947,0.804-1.604h1.011
		c-0.029,0.58-0.211,1.109-0.545,1.586c-0.334,0.479-0.777,0.852-1.332,1.121c-0.553,0.27-1.146,0.404-1.779,0.404
		c-1.248,0-2.236-0.434-2.967-1.301c-0.729-0.867-1.094-2.033-1.094-3.498v-0.316c0-0.938,0.164-1.767,0.492-2.487
		s0.798-1.277,1.41-1.67s1.329-0.589,2.149-0.589c1.043,0,1.903,0.311,2.579,0.932c0.678,0.621,1.039,1.438,1.086,2.452h-1.011
		c-0.047-0.744-0.315-1.345-0.804-1.802c-0.49-0.457-1.106-0.686-1.851-0.686c-0.949,0-1.687,0.343-2.21,1.028
		c-0.525,0.686-0.787,1.646-0.787,2.883v0.308c0,1.213,0.262,2.159,0.787,2.839C95.022,157.68,95.762,158.02,96.717,158.02z"/>
	<path fill="#999999" d="M105.488,157.22l2.777-7.998h1.135l-4.061,11.127l-0.211,0.492c-0.521,1.154-1.328,1.731-2.418,1.731
		c-0.252,0-0.521-0.041-0.809-0.123l-0.008-0.87l0.545,0.053c0.516,0,0.932-0.127,1.252-0.383c0.318-0.254,0.59-0.692,0.813-1.313
		l0.467-1.283l-3.586-9.431h1.15L105.488,157.22z"/>
	<path fill="#999999" d="M117.855,150.118h-3.463v8.613h-1.055v-8.613h-3.332v-0.896h7.85V150.118z"/>
	<path fill="#999999" d="M122.391,158.02c0.732,0,1.346-0.206,1.842-0.62c0.494-0.412,0.762-0.947,0.803-1.604h1.012
		c-0.029,0.58-0.211,1.109-0.545,1.586c-0.334,0.479-0.777,0.852-1.332,1.121c-0.553,0.27-1.146,0.404-1.779,0.404
		c-1.248,0-2.236-0.434-2.967-1.301c-0.729-0.867-1.094-2.033-1.094-3.498v-0.316c0-0.938,0.164-1.767,0.492-2.487
		s0.797-1.277,1.41-1.67c0.611-0.393,1.328-0.589,2.148-0.589c1.043,0,1.904,0.311,2.58,0.932c0.678,0.621,1.039,1.438,1.086,2.452
		h-1.012c-0.047-0.744-0.314-1.345-0.803-1.802c-0.49-0.457-1.107-0.686-1.852-0.686c-0.949,0-1.686,0.343-2.209,1.028
		c-0.525,0.686-0.787,1.646-0.787,2.883v0.308c0,1.213,0.262,2.159,0.787,2.839C120.695,157.68,121.436,158.02,122.391,158.02z"/>
	<path fill="#999999" d="M134.977,150.118h-3.463v8.613h-1.055v-8.613h-3.332v-0.896h7.85V150.118z"/>
	<path fill="#999999" d="M136.813,158.731v-9.51h3.49c1.207,0,2.133,0.215,2.777,0.646c0.645,0.43,0.967,1.062,0.967,1.894
		c0,0.475-0.145,0.898-0.432,1.271s-0.705,0.643-1.256,0.813c0.621,0.117,1.121,0.384,1.498,0.8c0.379,0.416,0.566,0.899,0.566,1.45
		c0,0.838-0.309,1.487-0.926,1.947c-0.619,0.46-1.494,0.689-2.625,0.689H136.813z M137.859,153.476h2.662
		c1.652-0.023,2.479-0.586,2.479-1.688c0-0.58-0.227-1.003-0.68-1.27c-0.455-0.267-1.127-0.4-2.018-0.4h-2.443V153.476z
		 M137.859,154.354v3.498h3.049c0.791,0,1.4-0.152,1.828-0.457s0.643-0.744,0.643-1.318c0-0.527-0.215-0.946-0.643-1.257
		s-1.037-0.466-1.828-0.466H137.859z"/>
	<path fill="#999999" d="M149.68,157.22l2.777-7.998h1.135l-4.061,11.127l-0.211,0.492c-0.521,1.154-1.328,1.731-2.418,1.731
		c-0.252,0-0.521-0.041-0.809-0.123l-0.008-0.87l0.545,0.053c0.516,0,0.932-0.127,1.252-0.383c0.318-0.254,0.59-0.692,0.813-1.313
		l0.467-1.283l-3.586-9.431h1.15L149.68,157.22z"/>
	<path fill="#999999" d="M158.785,158.907c-0.809,0-1.539-0.199-2.191-0.598c-0.654-0.398-1.162-0.953-1.525-1.666
		c-0.363-0.711-0.545-1.51-0.545-2.395v-0.378c0-0.914,0.176-1.737,0.531-2.47c0.354-0.732,0.848-1.308,1.48-1.727
		s1.318-0.629,2.057-0.629c1.154,0,2.07,0.395,2.748,1.182c0.676,0.789,1.014,1.865,1.014,3.23v0.589h-6.785v0.202
		c0,1.078,0.309,1.977,0.928,2.693c0.617,0.719,1.396,1.077,2.334,1.077c0.563,0,1.059-0.103,1.49-0.308
		c0.43-0.205,0.82-0.533,1.172-0.984l0.66,0.501C161.379,158.348,160.256,158.907,158.785,158.907z M158.592,149.942
		c-0.791,0-1.457,0.29-1.998,0.87c-0.543,0.58-0.873,1.359-0.99,2.338h5.705v-0.114c-0.029-0.914-0.291-1.658-0.783-2.232
		S159.389,149.942,158.592,149.942z"/>
	<path fill="#999999" d="M171.135,150.118h-3.463v8.613h-1.055v-8.613h-3.332v-0.896h7.85V150.118z"/>
</g>
</svg>
