<svg width="24" height="20" viewBox="0 0 24 20" fill="none" xmlns="http://www.w3.org/2000/svg">
<mask id="mask0" mask-type="alpha" maskUnits="userSpaceOnUse" x="0" y="0" width="24" height="20">
<path fill-rule="evenodd" clip-rule="evenodd" d="M0 0H24V20H0V0Z" fill="white"/>
</mask>
<g mask="url(#mask0)">
<path fill-rule="evenodd" clip-rule="evenodd" d="M22.0499 1.85935C20.7906 0.660047 19.1166 0 17.3357 0C15.5544 0 13.8804 0.660047 12.6205 1.85935L11.9999 2.45048L11.3795 1.85935C10.1203 0.660047 8.44538 0 6.66474 0C4.88378 0 3.20915 0.660047 1.9499 1.85935C-0.649968 4.33577 -0.649968 8.36459 1.9499 10.8402L11.2657 19.7125C11.4182 19.858 11.6077 19.9473 11.8057 19.9815C11.8722 19.9941 11.939 20 12.006 20C12.2695 20 12.5336 19.9039 12.7344 19.7125L22.0501 10.8402C24.65 8.36459 24.65 4.33577 22.0499 1.85935Z" fill="#CCCCCC"/>
</g>
</svg>
