<?xml version="1.0" encoding="UTF-8"?>
<svg width="25px" height="25px" viewBox="0 0 25 25" version="1.1" xmlns="http://www.w3.org/2000/svg" xmlns:xlink="http://www.w3.org/1999/xlink">
    <!-- Generator: Sketch 51.3 (57544) - http://www.bohemiancoding.com/sketch -->
    <title>icons8-odnoklassniki</title>
    <desc>Created with Sketch.</desc>
    <defs></defs>
    <g id="Symbols" stroke="none" stroke-width="1" fill="none" fill-rule="evenodd">
        <g id="footer" transform="translate(-1309.000000, -39.000000)" fill="#FF9800" fill-rule="nonzero">
            <g id="social">
                <g transform="translate(1141.000000, 34.000000)">
                    <g id="icons8-odnoklassniki" transform="translate(168.000000, 5.000000)">
                        <path d="M23.6702128,0 L1.32978723,0 C0.595478723,0 0,0.595212766 0,1.32978723 L0,23.6702128 C0,24.4047872 0.595478723,25 1.32978723,25 L23.6702128,25 C24.4047872,25 25,24.4047872 25,23.6702128 L25,1.32978723 C25,0.595212766 24.4047872,0 23.6702128,0 Z M12.5212766,2.33138298 C15.3667553,2.33856383 17.6513298,4.66675532 17.637234,7.54468085 C17.6220745,10.3558511 15.300266,12.6345745 12.4593085,12.625 C9.64654255,12.6154255 7.34015957,10.2837766 7.35611702,7.46648936 C7.37287234,4.61835106 9.68085106,2.32287234 12.5212766,2.33138298 Z M12.5135638,9.99734043 C13.9090426,9.99281915 15.0204787,8.87234043 15.0154255,7.47367021 C15.0098404,6.075 13.8965426,4.96090426 12.5005319,4.95984043 C11.0928191,4.95851064 9.96861702,6.09255319 9.97952128,7.50398936 C9.98989362,8.89734043 11.1138298,10.0031915 12.5135638,9.99734043 Z M18.2853723,14.6468085 C17.656117,15.2933511 16.8986702,15.7603723 16.0571809,16.087234 C15.2617021,16.3946809 14.3901596,16.5505319 13.5273936,16.6537234 C13.6577128,16.7957447 13.7191489,16.8646277 13.8,16.9468085 C14.9712766,18.1236702 16.1473404,19.2957447 17.3146277,20.4760638 C17.7119681,20.8779255 17.7960106,21.3765957 17.5765957,21.8444149 C17.3369681,22.356383 16.8010638,22.6922872 16.275,22.656117 C15.9420213,22.6327128 15.6824468,22.4670213 15.4521277,22.2353723 C14.5680851,21.3457447 13.6672872,20.4728723 12.8018617,19.5675532 C12.55,19.3037234 12.4287234,19.3529255 12.2058511,19.5824468 C11.3167553,20.4978723 10.4138298,21.3992021 9.50505319,22.2952128 C9.09680851,22.6978723 8.61143617,22.7699468 8.13723404,22.5404255 C7.63404255,22.2965426 7.3143617,21.7829787 7.33909574,21.2662234 C7.35611702,20.9172872 7.52792553,20.6507979 7.76755319,20.4114362 C8.92606383,19.2542553 10.0819149,18.0941489 11.2382979,16.9348404 C11.3151596,16.8582447 11.3864362,16.7760638 11.4978723,16.6569149 C9.92101064,16.4922872 8.49920213,16.1045213 7.28244681,15.1523936 C7.13164894,15.0340426 6.97553191,14.9196809 6.83723404,14.787234 C6.30478723,14.2755319 6.25132979,13.6901596 6.67287234,13.0861702 C7.03297872,12.5696809 7.63882979,12.4308511 8.26781915,12.7273936 C8.38989362,12.7845745 8.50585106,12.8566489 8.61702128,12.9335106 C10.8851064,14.4920213 14.0013298,14.5353723 16.2781915,13.0042553 C16.5034574,12.8321809 16.7446809,12.6896277 17.0244681,12.618883 C17.5683511,12.4792553 18.0742021,12.6784574 18.3662234,13.1539894 C18.7005319,13.6957447 18.6960106,14.2255319 18.2853723,14.6468085 Z" id="Shape"></path>
                    </g>
                </g>
            </g>
        </g>
    </g>
</svg>