<?xml version="1.0" encoding="UTF-8"?>
<svg width="25px" height="25px" viewBox="0 0 25 25" version="1.1" xmlns="http://www.w3.org/2000/svg" xmlns:xlink="http://www.w3.org/1999/xlink">
    <!-- Generator: Sketch 51.3 (57544) - http://www.bohemiancoding.com/sketch -->
    <title>icons8-vkontakte</title>
    <desc>Created with Sketch.</desc>
    <defs></defs>
    <g id="Symbols" stroke="none" stroke-width="1" fill="none" fill-rule="evenodd">
        <g id="footer" transform="translate(-1141.000000, -38.000000)" fill="#0388D1" fill-rule="nonzero">
            <g id="social">
                <g transform="translate(1141.000000, 34.000000)">
                    <g id="icons8-vkontakte" transform="translate(0.000000, 4.000000)">
                        <path d="M13.8473958,13.778125 C13.4466146,13.5447917 12.8895833,13.5447917 12.4369792,13.5447917 L10.9507813,13.5447917 L10.9507813,16.6072917 L12.3148438,16.6072917 C12.8197917,16.6072917 13.4638021,16.6434896 13.8992187,16.3377604 C14.2989583,16.06875 14.5252604,15.540625 14.5252604,15.0377604 C14.5252604,14.5705729 14.2471354,14.0117188 13.8473958,13.778125 Z M13.2867188,11.1627604 C13.6174479,10.9109375 13.7908854,10.4619792 13.7908854,10.0484375 C13.7908854,9.59921875 13.5822917,9.16796875 13.1997396,8.93463542 C12.7994792,8.70130208 12.0679687,8.75520833 11.5981771,8.75520833 L10.9507813,8.75520833 L10.9507813,11.4505208 L11.8072917,11.4505208 C12.2945312,11.4502604 12.8692708,11.4861979 13.2867188,11.1627604 Z M20.6054688,0 L4.39401042,0 C1.96744792,0 0,1.96744792 0,4.39453125 L0,20.6054688 C0,23.0320312 1.96744792,25 4.39401042,25 L20.6054688,25 C23.0320312,25 25,23.0320312 25,20.6054688 L25,4.39453125 C25,1.96744792 23.0320312,0 20.6054688,0 Z M13.178125,18.8893229 L8.07083333,18.8893229 L8.07083333,6.56276042 L13.6510417,6.56276042 C15.2674479,6.56276042 16.7588542,7.59166667 16.7588542,9.40651042 C16.7588542,10.8078125 15.9765625,11.7674479 14.9786458,12.065625 L14.9786458,12.1018229 C16.4583333,12.4075521 17.5151042,13.2111979 17.5151042,15.15 C17.5151042,16.9442708 16.2932292,18.8893229 13.178125,18.8893229 Z" id="Shape"></path>
                    </g>
                </g>
            </g>
        </g>
    </g>
</svg>