<?xml version="1.0" encoding="UTF-8"?>
<svg width="25px" height="25px" viewBox="0 0 25 25" version="1.1" xmlns="http://www.w3.org/2000/svg" xmlns:xlink="http://www.w3.org/1999/xlink">
    <!-- Generator: Sketch 51.3 (57544) - http://www.bohemiancoding.com/sketch -->
    <title>icons8-facebook</title>
    <desc>Created with Sketch.</desc>
    <defs></defs>
    <g id="Symbols" stroke="none" stroke-width="1" fill="none" fill-rule="evenodd">
        <g id="footer" transform="translate(-1201.000000, -38.000000)" fill="#3F51B5" fill-rule="nonzero">
            <g id="social">
                <g transform="translate(1141.000000, 34.000000)">
                    <g id="icons8-facebook" transform="translate(60.000000, 4.000000)">
                        <path d="M20.3125,0 L4.6875,0 C2.09807692,0 0,2.09807692 0,4.6875 L0,20.3125 C0,22.9019231 2.09807692,25 4.6875,25 L20.3125,25 C22.9019231,25 25,22.9019231 25,20.3125 L25,4.6875 C25,2.09807692 22.9019231,0 20.3125,0 Z M19.6769231,13.4634615 L17.3375,13.4634615 L17.3375,22.1211538 L13.4307692,22.1211538 L13.4307692,13.4634615 L11.9153846,13.4634615 L11.9153846,10.5471154 L13.4307692,10.5471154 L13.4307692,8.68942308 C13.4317308,6.25384615 14.4432692,4.80769231 17.3134615,4.80769231 L20.2221154,4.80769231 L20.2221154,7.71346154 L18.5326923,7.71346154 C17.4153846,7.71346154 17.3423077,8.12980769 17.3423077,8.90865385 L17.3375,10.5461538 L19.9951923,10.5461538 L19.6769231,13.4634615 Z" id="Shape"></path>
                    </g>
                </g>
            </g>
        </g>
    </g>
</svg>