<svg width="38" height="45" viewBox="0 0 38 45" fill="none" xmlns="http://www.w3.org/2000/svg">
<mask id="mask0" mask-type="alpha" maskUnits="userSpaceOnUse" x="0" y="0" width="37" height="45">
<path fill-rule="evenodd" clip-rule="evenodd" d="M0.541412 0.800781H36.9698V44.8007H0.541412V0.800781Z" fill="white"/>
</mask>
<g mask="url(#mask0)">
<path fill-rule="evenodd" clip-rule="evenodd" d="M29.8176 30.0907L18.7531 41.1552L7.68858 30.0907C4.63805 27.0402 3.11283 23.0332 3.11283 19.0261C3.11283 15.0191 4.63805 11.012 7.68858 7.96161C10.6441 5.00622 14.5735 3.37856 18.7531 3.37856C22.9328 3.37856 26.8623 5.00622 29.8177 7.9617C32.8681 11.0121 34.3934 15.0192 34.3934 19.0262C34.3934 23.0332 32.868 27.0402 29.8176 30.0907ZM31.6403 6.13888C28.1982 2.69656 23.6213 0.800781 18.7531 0.800781C13.8849 0.800781 9.30815 2.69656 5.86584 6.13888C2.31267 9.69188 0.536255 14.3591 0.536255 19.0261C0.536255 23.6932 2.31275 28.3603 5.86584 31.9133L18.753 44.8007L31.6402 31.9133C35.1933 28.3603 36.9698 23.6932 36.9698 19.0261C36.9698 14.3591 35.1934 9.69196 31.6403 6.13888Z" fill="#02643D"/>
<path fill-rule="evenodd" clip-rule="evenodd" d="M29.8176 30.0907L18.7531 41.1552L7.68858 30.0907C4.63805 27.0402 3.11283 23.0332 3.11283 19.0261C3.11283 15.0191 4.63805 11.012 7.68858 7.96161C10.6441 5.00622 14.5735 3.37856 18.7531 3.37856C22.9328 3.37856 26.8623 5.00622 29.8177 7.9617C32.8681 11.0121 34.3934 15.0192 34.3934 19.0262C34.3934 23.0332 32.868 27.0402 29.8176 30.0907ZM31.6403 6.13888C28.1982 2.69656 23.6213 0.800781 18.7531 0.800781C13.8849 0.800781 9.30815 2.69656 5.86584 6.13888C2.31267 9.69188 0.536255 14.3591 0.536255 19.0261C0.536255 23.6932 2.31275 28.3603 5.86584 31.9133L18.753 44.8007L31.6402 31.9133C35.1933 28.3603 36.9698 23.6932 36.9698 19.0261C36.9698 14.3591 35.1934 9.69196 31.6403 6.13888Z" fill="#60C0AA"/>
</g>
<path fill-rule="evenodd" clip-rule="evenodd" d="M12.2288 12.5019H14.8842V18.5216H22.6219V12.5019H25.2772V25.5503H12.2288V12.5019ZM17.4621 15.9437H20.0441V12.5019H17.4621V15.9437ZM9.65105 28.1282H27.855V9.92407H9.65105V28.1282Z" fill="#02643D"/>
<path fill-rule="evenodd" clip-rule="evenodd" d="M12.2288 12.5019H14.8842V18.5216H22.6219V12.5019H25.2772V25.5503H12.2288V12.5019ZM17.4621 15.9437H20.0441V12.5019H17.4621V15.9437ZM9.65105 28.1282H27.855V9.92407H9.65105V28.1282Z" fill="#60C0AA"/>
</svg>
