<svg width="95" height="24" viewBox="0 0 95 24" fill="none" xmlns="http://www.w3.org/2000/svg">
<rect width="95" height="24" fill="#E1AC3A"/>
<path d="M13.7109 8.91797C13.7109 9.92969 13.3646 10.709 12.6719 11.2559C11.9837 11.7982 10.9971 12.0693 9.71191 12.0693H8.53613V16H7.37402V6.00586H9.96484C12.4622 6.00586 13.7109 6.97656 13.7109 8.91797ZM8.53613 11.0713H9.58203C10.612 11.0713 11.3571 10.9049 11.8174 10.5723C12.2777 10.2396 12.5078 9.70638 12.5078 8.97266C12.5078 8.31185 12.2913 7.81966 11.8584 7.49609C11.4255 7.17253 10.751 7.01074 9.83496 7.01074H8.53613V11.0713ZM20.2461 16L20.0205 14.9336H19.9658C19.5921 15.403 19.2184 15.722 18.8447 15.8906C18.4756 16.0547 18.013 16.1367 17.457 16.1367C16.7142 16.1367 16.1309 15.9453 15.707 15.5625C15.2878 15.1797 15.0781 14.6351 15.0781 13.9287C15.0781 12.4157 16.2881 11.6227 18.708 11.5498L19.9795 11.5088V11.0439C19.9795 10.4561 19.8519 10.0231 19.5967 9.74512C19.346 9.46257 18.9427 9.32129 18.3867 9.32129C17.7624 9.32129 17.056 9.5127 16.2676 9.89551L15.9189 9.02734C16.2881 8.82682 16.6914 8.6696 17.1289 8.55566C17.571 8.44173 18.013 8.38477 18.4551 8.38477C19.3483 8.38477 20.0091 8.58301 20.4375 8.97949C20.8704 9.37598 21.0869 10.0117 21.0869 10.8867V16H20.2461ZM17.6826 15.2002C18.389 15.2002 18.9427 15.0065 19.3438 14.6191C19.7493 14.2318 19.9521 13.6895 19.9521 12.9922V12.3154L18.8174 12.3633C17.915 12.3952 17.2633 12.5365 16.8623 12.7871C16.4658 13.0332 16.2676 13.4183 16.2676 13.9424C16.2676 14.3525 16.3906 14.6647 16.6367 14.8789C16.8874 15.0931 17.236 15.2002 17.6826 15.2002ZM26.4258 16.1367C25.3411 16.1367 24.5003 15.804 23.9033 15.1387C23.3109 14.4688 23.0146 13.5231 23.0146 12.3018C23.0146 11.0485 23.3154 10.0801 23.917 9.39648C24.5231 8.71289 25.3844 8.37109 26.501 8.37109C26.861 8.37109 27.221 8.40983 27.5811 8.4873C27.9411 8.56478 28.2236 8.65592 28.4287 8.76074L28.0801 9.72461C27.8294 9.62435 27.556 9.54232 27.2598 9.47852C26.9635 9.41016 26.7015 9.37598 26.4736 9.37598C24.9515 9.37598 24.1904 10.3467 24.1904 12.2881C24.1904 13.2087 24.375 13.915 24.7441 14.4072C25.1178 14.8994 25.6693 15.1455 26.3984 15.1455C27.0228 15.1455 27.6631 15.0111 28.3193 14.7422V15.7471C27.818 16.0068 27.1868 16.1367 26.4258 16.1367ZM31.2383 16H30.1035V8.50781H36.3926V16H35.2441V9.49219H31.2383V16ZM42.2852 16.1367C41.7975 16.1367 41.3509 16.0479 40.9453 15.8701C40.5443 15.6878 40.207 15.4098 39.9336 15.0361H39.8516C39.9062 15.4736 39.9336 15.8883 39.9336 16.2803V19.3633H38.7988V8.50781H39.7217L39.8789 9.5332H39.9336C40.2253 9.12305 40.5648 8.82682 40.9521 8.64453C41.3395 8.46224 41.7839 8.37109 42.2852 8.37109C43.2786 8.37109 44.0443 8.71061 44.582 9.38965C45.1243 10.0687 45.3955 11.0212 45.3955 12.2471C45.3955 13.4775 45.1198 14.4346 44.5684 15.1182C44.0215 15.7972 43.2604 16.1367 42.2852 16.1367ZM42.1211 9.33496C41.3555 9.33496 40.8018 9.54688 40.46 9.9707C40.1182 10.3945 39.9427 11.069 39.9336 11.9941V12.2471C39.9336 13.2998 40.109 14.054 40.46 14.5098C40.8109 14.9609 41.3737 15.1865 42.1484 15.1865C42.7956 15.1865 43.3014 14.9245 43.666 14.4004C44.0352 13.8763 44.2197 13.154 44.2197 12.2334C44.2197 11.2992 44.0352 10.5837 43.666 10.0869C43.3014 9.58561 42.7865 9.33496 42.1211 9.33496ZM53.8516 12.2471C53.8516 13.4684 53.5439 14.4232 52.9287 15.1113C52.3135 15.7949 51.4635 16.1367 50.3789 16.1367C49.709 16.1367 49.1143 15.9795 48.5947 15.665C48.0752 15.3506 47.6742 14.8994 47.3916 14.3115C47.109 13.7236 46.9678 13.0355 46.9678 12.2471C46.9678 11.0257 47.2731 10.0755 47.8838 9.39648C48.4945 8.71289 49.3421 8.37109 50.4268 8.37109C51.4749 8.37109 52.3066 8.71973 52.9219 9.41699C53.5417 10.1143 53.8516 11.0576 53.8516 12.2471ZM48.1436 12.2471C48.1436 13.2041 48.335 13.9333 48.7178 14.4346C49.1006 14.9359 49.6634 15.1865 50.4062 15.1865C51.1491 15.1865 51.7119 14.9382 52.0947 14.4414C52.4821 13.9401 52.6758 13.2087 52.6758 12.2471C52.6758 11.2946 52.4821 10.5723 52.0947 10.0801C51.7119 9.58333 51.1445 9.33496 50.3926 9.33496C49.6497 9.33496 49.0892 9.57878 48.7109 10.0664C48.3327 10.554 48.1436 11.2809 48.1436 12.2471ZM62.3555 18.5908H61.2549V16H56.0186V18.5908H54.9248V15.0225H55.5127C56.1234 14.193 56.6019 13.2201 56.9482 12.1035C57.2946 10.987 57.4746 9.78841 57.4883 8.50781H61.2822V15.0225H62.3555V18.5908ZM60.1885 15.0225V9.40332H58.5068C58.4476 10.415 58.2516 11.4404 57.9189 12.4795C57.5908 13.514 57.1807 14.3617 56.6885 15.0225H60.1885ZM68.4668 16L68.2412 14.9336H68.1865C67.8128 15.403 67.4391 15.722 67.0654 15.8906C66.6963 16.0547 66.2337 16.1367 65.6777 16.1367C64.9349 16.1367 64.3516 15.9453 63.9277 15.5625C63.5085 15.1797 63.2988 14.6351 63.2988 13.9287C63.2988 12.4157 64.5088 11.6227 66.9287 11.5498L68.2002 11.5088V11.0439C68.2002 10.4561 68.0726 10.0231 67.8174 9.74512C67.5667 9.46257 67.1634 9.32129 66.6074 9.32129C65.9831 9.32129 65.2767 9.5127 64.4883 9.89551L64.1396 9.02734C64.5088 8.82682 64.9121 8.6696 65.3496 8.55566C65.7917 8.44173 66.2337 8.38477 66.6758 8.38477C67.569 8.38477 68.2298 8.58301 68.6582 8.97949C69.0911 9.37598 69.3076 10.0117 69.3076 10.8867V16H68.4668ZM65.9033 15.2002C66.6097 15.2002 67.1634 15.0065 67.5645 14.6191C67.9701 14.2318 68.1729 13.6895 68.1729 12.9922V12.3154L67.0381 12.3633C66.1357 12.3952 65.484 12.5365 65.083 12.7871C64.6865 13.0332 64.4883 13.4183 64.4883 13.9424C64.4883 14.3525 64.6113 14.6647 64.8574 14.8789C65.1081 15.0931 65.4567 15.2002 65.9033 15.2002ZM75.0703 8.52148H76.1162V12.1514L79.2129 8.52148H80.457L77.3262 12.1514L80.7236 16H79.4111L76.1162 12.2061V16H75.0703V12.2061L71.7822 16H70.4766L73.8672 12.1514L70.7432 8.52148H71.9873L75.0703 12.1514V8.52148ZM86.5684 16L86.3428 14.9336H86.2881C85.9144 15.403 85.5407 15.722 85.167 15.8906C84.7979 16.0547 84.3353 16.1367 83.7793 16.1367C83.0365 16.1367 82.4531 15.9453 82.0293 15.5625C81.61 15.1797 81.4004 14.6351 81.4004 13.9287C81.4004 12.4157 82.6104 11.6227 85.0303 11.5498L86.3018 11.5088V11.0439C86.3018 10.4561 86.1742 10.0231 85.9189 9.74512C85.6683 9.46257 85.265 9.32129 84.709 9.32129C84.0846 9.32129 83.3783 9.5127 82.5898 9.89551L82.2412 9.02734C82.6104 8.82682 83.0137 8.6696 83.4512 8.55566C83.8932 8.44173 84.3353 8.38477 84.7773 8.38477C85.6706 8.38477 86.3314 8.58301 86.7598 8.97949C87.1927 9.37598 87.4092 10.0117 87.4092 10.8867V16H86.5684ZM84.0049 15.2002C84.7113 15.2002 85.265 15.0065 85.666 14.6191C86.0716 14.2318 86.2744 13.6895 86.2744 12.9922V12.3154L85.1396 12.3633C84.2373 12.3952 83.5856 12.5365 83.1846 12.7871C82.7881 13.0332 82.5898 13.4183 82.5898 13.9424C82.5898 14.3525 82.7129 14.6647 82.959 14.8789C83.2096 15.0931 83.5583 15.2002 84.0049 15.2002Z" fill="white"/>
</svg>
