<svg width="21" height="23" viewBox="0 0 21 23" fill="none" xmlns="http://www.w3.org/2000/svg">
<g opacity="0.4">
<mask id="mask0" mask-type="alpha" maskUnits="userSpaceOnUse" x="0" y="0" width="21" height="23">
<path fill-rule="evenodd" clip-rule="evenodd" d="M0 0H21V23H0V0Z" fill="white"/>
</mask>
<g mask="url(#mask0)">
<path fill-rule="evenodd" clip-rule="evenodd" d="M17.0127 14.7761C15.7314 14.7761 14.589 15.4064 13.8582 16.3807L7.73857 12.8516C7.88196 12.4265 7.96059 11.968 7.96059 11.4951C7.96059 11.0176 7.88196 10.564 7.73406 10.1342L13.8489 6.60956C14.575 7.5887 15.7224 8.22394 17.0082 8.22394C19.2006 8.22394 20.9907 6.38032 20.9907 4.11185C20.9907 1.84337 19.2053 0 17.0082 0C14.8111 0 13.0256 1.84337 13.0256 4.11185C13.0256 4.58942 13.1043 5.04789 13.2522 5.47299L7.14187 8.99743C6.41571 8.01356 5.26857 7.38329 3.98255 7.38329C1.79015 7.38329 0 9.22666 0 11.4951C0 13.7636 1.79015 15.6072 3.98729 15.6072C5.27308 15.6072 6.42022 14.972 7.15112 13.9881L13.2662 17.5175C13.118 17.9473 13.0349 18.4103 13.0349 18.8879C13.0349 21.1517 14.8203 23 17.0174 23C19.2146 23 21 21.1564 21 18.8879C21 16.6194 19.2099 14.7761 17.0127 14.7761ZM17.0127 1.29422C18.5208 1.29422 19.7465 2.55973 19.7465 4.11674C19.7465 5.67351 18.5208 6.93902 17.0127 6.93902C15.5049 6.93902 14.2792 5.67351 14.2792 4.11674C14.2792 2.55973 15.5094 1.29422 17.0127 1.29422ZM3.98729 14.3177C2.47924 14.3177 1.25353 13.0521 1.25353 11.4951C1.25353 9.9383 2.47924 8.67279 3.98729 8.67279C5.49511 8.67279 6.72083 9.9383 6.72083 11.4951C6.72083 13.0521 5.4906 14.3177 3.98729 14.3177ZM17.0127 21.7058C15.5049 21.7058 14.2792 20.44 14.2792 18.8833C14.2792 17.3262 15.5049 16.0607 17.0127 16.0607C18.5208 16.0607 19.7465 17.3262 19.7465 18.8833C19.7465 20.44 18.5208 21.7058 17.0127 21.7058Z" fill="black"/>
</g>
</g>
</svg>
