<svg width="70" height="45" viewBox="0 0 70 45" fill="none" xmlns="http://www.w3.org/2000/svg">
<mask id="mask0" mask-type="alpha" maskUnits="userSpaceOnUse" x="0" y="0" width="69" height="45">
<path fill-rule="evenodd" clip-rule="evenodd" d="M0.401306 0.817383H68.805V44.0844H0.401306V0.817383Z" fill="white"/>
</mask>
<g mask="url(#mask0)">
<path fill-rule="evenodd" clip-rule="evenodd" d="M65.4487 28.2393C64.7793 28.2393 64.2347 27.6946 64.2347 27.0252V25.8112H66.6627V28.2393H65.4487ZM57.4507 41.9501C54.8913 41.9501 52.809 39.8679 52.809 37.3083C52.809 34.7489 54.8913 32.6666 57.4507 32.6666C60.0101 32.6666 62.0924 34.7489 62.0924 37.3083C62.0924 39.8679 60.0101 41.9501 57.4507 41.9501ZM19.7457 41.9501C17.1864 41.9501 15.104 39.8679 15.104 37.3083C15.104 34.7489 17.1864 32.6666 19.7457 32.6666C22.3051 32.6666 24.3874 34.7489 24.3874 37.3083C24.3874 39.8679 22.3051 41.9501 19.7457 41.9501ZM58.5932 7.53001C59.8927 7.53001 60.9498 8.58719 60.9498 9.88661V9.95796H50.5239V7.53001H58.5932ZM50.5239 12.1004H60.042L61.7916 19.0985H50.5239V12.1004ZM64.0159 19.1629L62.2443 12.0766C62.7287 11.9738 63.0921 11.544 63.0921 11.0292V9.88661C63.0921 7.40588 61.074 5.38774 58.5932 5.38774H50.5239V3.03114C50.5239 1.81042 49.5308 0.817383 48.3101 0.817383H7.17729C5.95671 0.817383 4.96367 1.81042 4.96367 3.03114V22.4549C4.96367 23.0465 5.44322 23.5261 6.03474 23.5261C6.62639 23.5261 7.10594 23.0465 7.10594 22.4549V3.03114C7.10594 2.99173 7.13788 2.95966 7.17729 2.95966H48.3101C48.3495 2.95966 48.3815 2.99173 48.3815 3.03114V22.4553C48.3815 23.0468 48.8611 23.5263 49.4527 23.5263C50.0442 23.5263 50.5239 23.0468 50.5239 22.4553V21.2409H63.1598C63.1608 21.2409 63.1617 21.2412 63.1627 21.2412C63.1637 21.2412 63.1647 21.2411 63.1657 21.2411C64.7206 21.242 66.0409 22.2627 66.4942 23.669H63.1636C62.5719 23.669 62.0924 24.1486 62.0924 24.7402V27.0253C62.0924 28.8761 63.598 30.3817 65.4487 30.3817H66.6627V35.0947H63.8619C62.9418 32.4382 60.4162 30.5245 57.4507 30.5245C54.4851 30.5245 51.9594 32.4382 51.0395 35.0947H50.5239V27.0253C50.5239 26.4338 50.0442 25.9541 49.4527 25.9541C48.8611 25.9541 48.3815 26.4338 48.3815 27.0253V35.0946H26.1569C25.2368 32.438 22.7113 30.5244 19.7457 30.5244C16.7802 30.5244 14.2544 32.438 13.3346 35.0946H7.17729C7.13788 35.0946 7.10594 35.0627 7.10594 35.0232V32.6666H11.7476C12.3392 32.6666 12.8189 32.1871 12.8189 31.5956C12.8189 31.0039 12.3392 30.5244 11.7476 30.5244H1.46451C0.872861 30.5244 0.393311 31.0039 0.393311 31.5956C0.393311 32.1871 0.872861 32.6666 1.46451 32.6666H4.96367V35.0232C4.96367 36.244 5.95671 37.237 7.17729 37.237H12.9636C12.9632 37.2608 12.9617 37.2844 12.9617 37.3083C12.9617 41.0492 16.0051 44.0925 19.7457 44.0925C23.4863 44.0925 26.5298 41.0492 26.5298 37.3083C26.5298 37.2844 26.5282 37.2608 26.5279 37.237H50.6683C50.668 37.2608 50.6664 37.2844 50.6664 37.3083C50.6664 41.0492 53.7098 44.0925 57.4505 44.0925C61.1911 44.0925 64.2345 41.0492 64.2345 37.3083C64.2345 37.2844 64.2331 37.2608 64.2327 37.237H67.7338C68.3255 37.237 68.805 36.7574 68.805 36.1658V24.7401C68.805 21.9191 66.7237 19.5751 64.0159 19.1629Z" fill="#02643D"/>
<path fill-rule="evenodd" clip-rule="evenodd" d="M65.4487 28.2393C64.7793 28.2393 64.2347 27.6946 64.2347 27.0252V25.8112H66.6627V28.2393H65.4487ZM57.4507 41.9501C54.8913 41.9501 52.809 39.8679 52.809 37.3083C52.809 34.7489 54.8913 32.6666 57.4507 32.6666C60.0101 32.6666 62.0924 34.7489 62.0924 37.3083C62.0924 39.8679 60.0101 41.9501 57.4507 41.9501ZM19.7457 41.9501C17.1864 41.9501 15.104 39.8679 15.104 37.3083C15.104 34.7489 17.1864 32.6666 19.7457 32.6666C22.3051 32.6666 24.3874 34.7489 24.3874 37.3083C24.3874 39.8679 22.3051 41.9501 19.7457 41.9501ZM58.5932 7.53001C59.8927 7.53001 60.9498 8.58719 60.9498 9.88661V9.95796H50.5239V7.53001H58.5932ZM50.5239 12.1004H60.042L61.7916 19.0985H50.5239V12.1004ZM64.0159 19.1629L62.2443 12.0766C62.7287 11.9738 63.0921 11.544 63.0921 11.0292V9.88661C63.0921 7.40588 61.074 5.38774 58.5932 5.38774H50.5239V3.03114C50.5239 1.81042 49.5308 0.817383 48.3101 0.817383H7.17729C5.95671 0.817383 4.96367 1.81042 4.96367 3.03114V22.4549C4.96367 23.0465 5.44322 23.5261 6.03474 23.5261C6.62639 23.5261 7.10594 23.0465 7.10594 22.4549V3.03114C7.10594 2.99173 7.13788 2.95966 7.17729 2.95966H48.3101C48.3495 2.95966 48.3815 2.99173 48.3815 3.03114V22.4553C48.3815 23.0468 48.8611 23.5263 49.4527 23.5263C50.0442 23.5263 50.5239 23.0468 50.5239 22.4553V21.2409H63.1598C63.1608 21.2409 63.1617 21.2412 63.1627 21.2412C63.1637 21.2412 63.1647 21.2411 63.1657 21.2411C64.7206 21.242 66.0409 22.2627 66.4942 23.669H63.1636C62.5719 23.669 62.0924 24.1486 62.0924 24.7402V27.0253C62.0924 28.8761 63.598 30.3817 65.4487 30.3817H66.6627V35.0947H63.8619C62.9418 32.4382 60.4162 30.5245 57.4507 30.5245C54.4851 30.5245 51.9594 32.4382 51.0395 35.0947H50.5239V27.0253C50.5239 26.4338 50.0442 25.9541 49.4527 25.9541C48.8611 25.9541 48.3815 26.4338 48.3815 27.0253V35.0946H26.1569C25.2368 32.438 22.7113 30.5244 19.7457 30.5244C16.7802 30.5244 14.2544 32.438 13.3346 35.0946H7.17729C7.13788 35.0946 7.10594 35.0627 7.10594 35.0232V32.6666H11.7476C12.3392 32.6666 12.8189 32.1871 12.8189 31.5956C12.8189 31.0039 12.3392 30.5244 11.7476 30.5244H1.46451C0.872861 30.5244 0.393311 31.0039 0.393311 31.5956C0.393311 32.1871 0.872861 32.6666 1.46451 32.6666H4.96367V35.0232C4.96367 36.244 5.95671 37.237 7.17729 37.237H12.9636C12.9632 37.2608 12.9617 37.2844 12.9617 37.3083C12.9617 41.0492 16.0051 44.0925 19.7457 44.0925C23.4863 44.0925 26.5298 41.0492 26.5298 37.3083C26.5298 37.2844 26.5282 37.2608 26.5279 37.237H50.6683C50.668 37.2608 50.6664 37.2844 50.6664 37.3083C50.6664 41.0492 53.7098 44.0925 57.4505 44.0925C61.1911 44.0925 64.2345 41.0492 64.2345 37.3083C64.2345 37.2844 64.2331 37.2608 64.2327 37.237H67.7338C68.3255 37.237 68.805 36.7574 68.805 36.1658V24.7401C68.805 21.9191 66.7237 19.5751 64.0159 19.1629Z" fill="#60C0AA"/>
</g>
<path fill-rule="evenodd" clip-rule="evenodd" d="M19.7457 35.0947C18.525 35.0947 17.5319 36.0878 17.5319 37.3085C17.5319 38.5292 18.525 39.5222 19.7457 39.5222C20.9664 39.5222 21.9594 38.5292 21.9594 37.3085C21.9594 36.0878 20.9664 35.0947 19.7457 35.0947Z" fill="#02643D"/>
<path fill-rule="evenodd" clip-rule="evenodd" d="M19.7457 35.0947C18.525 35.0947 17.5319 36.0878 17.5319 37.3085C17.5319 38.5292 18.525 39.5222 19.7457 39.5222C20.9664 39.5222 21.9594 38.5292 21.9594 37.3085C21.9594 36.0878 20.9664 35.0947 19.7457 35.0947Z" fill="#60C0AA"/>
<path fill-rule="evenodd" clip-rule="evenodd" d="M57.4507 35.0947C56.23 35.0947 55.2369 36.0878 55.2369 37.3085C55.2369 38.5292 56.23 39.5222 57.4507 39.5222C58.6714 39.5222 59.6645 38.5292 59.6645 37.3085C59.6645 36.0878 58.6714 35.0947 57.4507 35.0947Z" fill="#02643D"/>
<path fill-rule="evenodd" clip-rule="evenodd" d="M57.4507 35.0947C56.23 35.0947 55.2369 36.0878 55.2369 37.3085C55.2369 38.5292 56.23 39.5222 57.4507 39.5222C58.6714 39.5222 59.6645 38.5292 59.6645 37.3085C59.6645 36.0878 58.6714 35.0947 57.4507 35.0947Z" fill="#60C0AA"/>
<path fill-rule="evenodd" clip-rule="evenodd" d="M27.8152 31.5956C27.8152 32.1871 28.2947 32.6667 28.8863 32.6667H44.8823C45.474 32.6667 45.9535 32.1871 45.9535 31.5956C45.9535 31.004 45.474 30.5244 44.8823 30.5244H28.8863C28.2947 30.5244 27.8152 31.004 27.8152 31.5956Z" fill="#02643D"/>
<path fill-rule="evenodd" clip-rule="evenodd" d="M27.8152 31.5956C27.8152 32.1871 28.2947 32.6667 28.8863 32.6667H44.8823C45.474 32.6667 45.9535 32.1871 45.9535 31.5956C45.9535 31.004 45.474 30.5244 44.8823 30.5244H28.8863C28.2947 30.5244 27.8152 31.004 27.8152 31.5956Z" fill="#60C0AA"/>
<path fill-rule="evenodd" clip-rule="evenodd" d="M3.74961 28.0965H17.4605C18.0521 28.0965 18.5316 27.6168 18.5316 27.0253C18.5316 26.4338 18.0521 25.9541 17.4605 25.9541H3.74961C3.15809 25.9541 2.67841 26.4338 2.67841 27.0253C2.67841 27.6168 3.15809 28.0965 3.74961 28.0965Z" fill="#02643D"/>
<path fill-rule="evenodd" clip-rule="evenodd" d="M3.74961 28.0965H17.4605C18.0521 28.0965 18.5316 27.6168 18.5316 27.0253C18.5316 26.4338 18.0521 25.9541 17.4605 25.9541H3.74961C3.15809 25.9541 2.67841 26.4338 2.67841 27.0253C2.67841 27.6168 3.15809 28.0965 3.74961 28.0965Z" fill="#60C0AA"/>
<path fill-rule="evenodd" clip-rule="evenodd" d="M36.1269 11.4144L26.6012 20.94L21.6457 15.9845C21.2274 15.5661 20.5491 15.5661 20.1309 15.9845C19.7126 16.4028 19.7126 17.0809 20.1309 17.4993L25.8438 23.2122C26.0528 23.4214 26.3271 23.5259 26.6012 23.5259C26.8752 23.5259 27.1494 23.4214 27.3585 23.2122L37.6418 12.9289C38.06 12.5106 38.06 11.8325 37.6418 11.4142C37.2235 10.996 36.5452 10.996 36.1269 11.4144Z" fill="#02643D"/>
<path fill-rule="evenodd" clip-rule="evenodd" d="M36.1269 11.4144L26.6012 20.94L21.6457 15.9845C21.2274 15.5661 20.5491 15.5661 20.1309 15.9845C19.7126 16.4028 19.7126 17.0809 20.1309 17.4993L25.8438 23.2122C26.0528 23.4214 26.3271 23.5259 26.6012 23.5259C26.8752 23.5259 27.1494 23.4214 27.3585 23.2122L37.6418 12.9289C38.06 12.5106 38.06 11.8325 37.6418 11.4142C37.2235 10.996 36.5452 10.996 36.1269 11.4144Z" fill="#60C0AA"/>
</svg>
