<?xml version="1.0" standalone="no"?>
<!DOCTYPE svg PUBLIC "-//W3C//DTD SVG 20010904//EN"
 "http://www.w3.org/TR/2001/REC-SVG-20010904/DTD/svg10.dtd">
<svg version="1.0" xmlns="http://www.w3.org/2000/svg"
 width="700.000000pt" height="700.000000pt" viewBox="0 0 700.000000 700.000000"
 preserveAspectRatio="xMidYMid meet">
<metadata>
Created by potrace 1.11, written by Peter Selinger 2001-2013
</metadata>
<g transform="translate(0.000000,700.000000) scale(0.100000,-0.100000)"
fill="#000000" stroke="none">
<path d="M3420 6577 c-58 -35 -116 -70 -130 -78 -14 -9 -110 -67 -215 -129
-180 -107 -430 -256 -1440 -860 -242 -145 -449 -268 -460 -274 -11 -6 -31 -19
-45 -27 -48 -31 -686 -412 -762 -455 -52 -29 -52 -40 1 -67 38 -20 701 -416
733 -438 15 -10 31 -19 36 -19 5 0 20 -8 33 -19 13 -10 42 -29 64 -41 77 -43
1330 -792 1357 -811 15 -10 29 -19 32 -19 2 0 145 -85 317 -188 344 -206 570
-340 581 -344 4 -2 161 89 349 202 189 113 351 210 361 215 30 16 280 166 318
190 52 33 463 279 474 284 6 2 62 35 126 74 63 38 129 78 145 87 17 9 73 43
125 75 52 32 109 66 125 75 17 10 224 133 460 275 237 141 496 296 577 343 81
48 147 89 147 92 1 5 -549 337 -738 446 -20 12 -121 73 -226 136 -104 63 -197
117 -205 121 -16 7 -508 302 -600 360 -60 37 -499 299 -515 307 -5 3 -21 12
-35 21 -21 14 -863 516 -880 525 -3 1 -53 -25 -110 -59z m221 -285 c63 -38
418 -250 789 -472 371 -222 781 -466 910 -544 129 -78 239 -143 245 -146 43
-21 675 -404 675 -409 0 -3 -28 -23 -63 -43 -34 -20 -194 -116 -356 -212 -161
-97 -294 -176 -296 -176 -2 0 -32 -18 -66 -39 -57 -35 -411 -247 -489 -293
-37 -22 -60 -36 -197 -118 -550 -329 -913 -546 -938 -560 -16 -9 -59 -35 -95
-57 -36 -22 -103 -62 -151 -90 l-85 -50 -305 183 c-167 101 -315 189 -329 197
-37 20 -1258 749 -1378 823 -57 35 -105 64 -107 64 -1 0 -101 59 -221 131
-121 73 -239 143 -264 157 -25 13 -52 30 -60 36 -8 7 -27 18 -42 26 -16 7 -28
16 -28 19 0 5 754 461 795 481 14 7 1332 797 1665 998 146 88 268 160 271 161
3 0 57 -30 120 -67z"/>
<path d="M553 3531 c-29 -48 -55 -94 -58 -102 -3 -10 30 -34 106 -79 62 -36
127 -74 145 -85 502 -300 692 -414 722 -431 20 -12 169 -101 330 -198 161 -97
297 -176 301 -176 5 0 14 -6 20 -14 7 -8 26 -21 44 -30 18 -8 331 -195 697
-414 663 -397 665 -399 690 -382 14 10 30 19 35 21 11 4 885 526 1198 715 103
63 190 114 193 114 2 0 23 12 47 27 23 14 58 36 77 48 39 25 1223 733 1255
751 27 15 199 116 203 119 4 3 -27 62 -63 120 -14 22 -31 50 -37 63 -6 12 -15
22 -19 22 -7 0 -645 -378 -972 -577 -75 -45 -139 -83 -142 -83 -2 0 -23 -12
-47 -27 -67 -43 -80 -51 -123 -74 -22 -12 -51 -30 -65 -39 -14 -10 -239 -145
-500 -300 -261 -155 -488 -291 -505 -302 -16 -10 -149 -90 -295 -176 l-264
-158 -94 56 c-51 30 -150 89 -220 131 -70 41 -288 172 -484 290 -197 117 -371
221 -386 230 -16 9 -215 128 -443 264 -228 137 -542 324 -699 418 -157 93
-302 180 -322 193 -21 13 -41 24 -44 24 -4 0 -22 11 -40 25 -18 14 -35 25 -37
25 -3 0 -35 18 -71 40 -36 22 -69 40 -73 40 -5 0 -31 -40 -60 -89z"/>
<path d="M547 2324 c-31 -52 -55 -99 -52 -103 4 -7 161 -104 220 -137 50 -27
753 -448 777 -465 15 -10 29 -19 32 -19 2 0 53 -30 113 -66 59 -37 124 -75
143 -86 30 -17 837 -499 1533 -915 114 -69 214 -123 220 -120 7 2 91 52 187
109 96 58 490 293 875 523 385 230 740 442 788 471 49 30 91 54 93 54 3 0 17
9 32 19 23 17 722 435 777 465 65 36 266 160 270 167 6 9 -107 199 -118 199
-5 0 -68 -36 -141 -79 -72 -43 -145 -87 -163 -97 -83 -48 -621 -370 -643 -385
-14 -9 -205 -124 -425 -255 -220 -130 -591 -351 -824 -491 -233 -139 -427
-253 -432 -253 -5 0 -9 -4 -9 -10 0 -5 -4 -10 -9 -10 -4 0 -67 -35 -138 -78
l-130 -79 -39 28 c-21 16 -42 28 -45 29 -3 0 -59 32 -125 72 -65 39 -128 76
-139 82 -11 6 -245 146 -520 311 -275 165 -512 306 -526 315 -14 8 -77 46
-140 83 -63 38 -121 72 -129 77 -8 5 -55 34 -105 63 -532 320 -1135 677 -1142
677 -4 0 -34 -43 -66 -96z"/>
</g>
</svg>
